<?xml version="1.0" encoding="UTF-8" standalone="no"?>
<svg
   viewBox="0 0 188.9127 188.21573"
   height="188.21573"
   width="188.9127"
   xml:space="preserve"
   id="svg2"
   version="1.1"
   sodipodi:docname="logo-branco.svg"
   inkscape:version="1.3.2 (091e20e, 2023-11-25, custom)"
   xmlns:inkscape="http://www.inkscape.org/namespaces/inkscape"
   xmlns:sodipodi="http://sodipodi.sourceforge.net/DTD/sodipodi-0.dtd"
   xmlns="http://www.w3.org/2000/svg"
   xmlns:svg="http://www.w3.org/2000/svg"
   xmlns:rdf="http://www.w3.org/1999/02/22-rdf-syntax-ns#"
   xmlns:cc="http://creativecommons.org/ns#"
   xmlns:dc="http://purl.org/dc/elements/1.1/"><sodipodi:namedview
     id="namedview1"
     pagecolor="#ffffff"
     bordercolor="#000000"
     borderopacity="0.25"
     inkscape:showpageshadow="2"
     inkscape:pageopacity="0.0"
     inkscape:pagecheckerboard="0"
     inkscape:deskcolor="#d1d1d1"
     inkscape:zoom="0.18995541"
     inkscape:cx="455.37003"
     inkscape:cy="623.83062"
     inkscape:window-width="1366"
     inkscape:window-height="705"
     inkscape:window-x="-8"
     inkscape:window-y="-8"
     inkscape:window-maximized="1"
     inkscape:current-layer="g10"
     inkscape:export-bgcolor="#0c0c0c00" /><metadata
     id="metadata8"><rdf:RDF><cc:Work
         rdf:about=""><dc:format>image/svg+xml</dc:format><dc:type
           rdf:resource="http://purl.org/dc/dcmitype/StillImage" /></cc:Work></rdf:RDF></metadata><defs
     id="defs6"><clipPath
       id="clipPath18"
       clipPathUnits="userSpaceOnUse"><path
         id="path16"
         d="M 0,1080 H 1920 V 0 H 0 Z" /></clipPath></defs><g
     transform="matrix(1.3333333,0,0,-1.3333333,-1226.1585,857.85801)"
     id="g10"><g
       clip-path="url(#clipPath18)"
       id="g14"
       transform="translate(8.5596144,-32.860641)"><g
         transform="translate(1011.0308,648.2888)"
         id="g200"><path
           id="path202"
           style="fill:#ffffff;fill-opacity:1;fill-rule:nonzero;stroke:none"
           d="m 0,0 -46.383,27.062 c 0,0 -2.974,2.288 -8.693,-1.372 -5.719,-3.66 -19.901,-10.751 -19.901,-10.751 0,0 -10.751,-9.608 -13.496,-14.869 -2.745,-5.261 -7.32,-14.64 -7.32,-14.64 l 44.835,24.934 c 0,0 5.261,0.934 9.378,-3.765 l 43.234,-24.6 c 0,0 0.452,15.765 0.057,16.413 C 1.353,-1.002 0,0 0,0" /></g><g
         transform="translate(1011.2743,648.2538)"
         id="g204"><path
           id="path206"
           style="fill:#ffffff;fill-opacity:1;fill-rule:nonzero;stroke:none"
           d="m 0,0 -46.383,27.062 c 0,0 -2.974,2.288 -8.693,-1.372 -5.719,-3.66 -19.901,-10.751 -19.901,-10.751 0,0 -10.751,-9.608 -13.496,-14.869 -2.745,-5.261 -7.32,-14.64 -7.32,-14.64 l 44.835,24.934 c 0,0 2.244,1.779 9.692,-3.397 l 42.92,-24.968 c 0,0 0.452,15.765 0.057,16.412 C 1.354,-1.002 0,0 0,0" /></g><g
         transform="translate(1011.5026,648.2538)"
         id="g208"><path
           id="path210"
           style="fill:#ffffff;fill-opacity:1;fill-rule:nonzero;stroke:none"
           d="m 0,0 -46.383,27.062 c 0,0 -2.974,2.288 -8.693,-1.372 -5.719,-3.66 -19.901,-10.751 -19.901,-10.751 0,0 -10.751,-9.608 -13.496,-14.869 -2.745,-5.261 -7.32,-14.64 -7.32,-14.64 l 44.835,24.934 c 0,0 2.244,1.779 9.692,-3.397 l 42.92,-24.968 c 0,0 0.452,15.765 0.057,16.412 C 1.353,-1.002 0,0 0,0" /></g><g
         transform="translate(1011.5026,648.1744)"
         id="g212"><path
           id="path214"
           style="fill:#ffffff;fill-opacity:1;fill-rule:nonzero;stroke:none"
           d="m 0,0 -46.383,27.062 c 0,0 -2.974,2.288 -8.693,-1.372 -5.719,-3.66 -19.901,-10.751 -19.901,-10.751 0,0 -10.751,-9.608 -13.496,-14.869 -2.745,-5.261 -7.32,-14.64 -7.32,-14.64 l 43.843,24.588 c 0,0 2.95,2.462 10.684,-3.051 l 42.92,-24.968 c 0,0 0.452,15.765 0.057,16.413 C 1.353,-1.002 0,0 0,0" /></g><g
         transform="translate(1011.9271,648.4106)"
         id="g216"><path
           id="path218"
           style="fill:#ffffff;fill-opacity:1;fill-rule:nonzero;stroke:none"
           d="m 0,0 -46.383,27.062 c 0,0 -2.974,2.288 -8.693,-1.372 -5.719,-3.66 -19.901,-10.751 -19.901,-10.751 0,0 -10.751,-9.608 -13.496,-14.869 -2.745,-5.261 -7.32,-14.64 -7.32,-14.64 l 43.843,24.588 c 0,0 2.95,2.462 10.684,-3.051 l 42.92,-24.968 c 0,0 0.452,15.765 0.057,16.412 C 1.354,-1.002 0,0 0,0" /></g><g
         transform="translate(1010.8307,647.9713)"
         id="g220"><path
           id="path222"
           style="fill:#ffffff;fill-opacity:1;fill-rule:nonzero;stroke:none"
           d="m 0,0 -46.383,27.062 c 0,0 -2.974,2.288 -8.693,-1.372 -5.719,-3.66 -19.901,-10.751 -19.901,-10.751 0,0 -10.751,-9.608 -13.496,-14.869 -2.745,-5.261 -7.32,-14.64 -7.32,-14.64 l 43.843,24.588 c 0,0 1.832,1.42 4.826,0.636 1.614,-0.423 3.149,-1.756 6.224,-3.359 L 2.02,-17.673 c 0,0 0.086,15.437 -0.309,16.084 C 1.353,-1.002 0,0 0,0" /></g><g
         transform="translate(977.3714,645.5852)"
         id="g224"><path
           id="path226"
           style="fill:#ffffff;fill-opacity:1;fill-rule:nonzero;stroke:none"
           d="m 0,0 -47.866,-27.964 c 0,0 -3.173,-0.858 -3.345,-5.49 l -0.601,-50.268 c 0,0 -13.896,17.156 -14.496,30.538 v 27.021 c 0,0 -0.294,5.211 4.074,6.991 l 46.107,26.645 c 0,0 2.059,1.191 4.118,-0.611 z" /></g><g
         transform="translate(945.8899,621.4808)"
         id="g228"><path
           id="path230"
           style="fill:#ffffff;fill-opacity:1;fill-rule:nonzero;stroke:none"
           d="m 0,0 v -55.071 c 0,0 -0.801,-4.289 4.06,-7.149 L 46.779,-86.238 H 24.362 c 0,0 -5.833,-1.544 -17.385,5.261 l -19.558,11.152 c 0,0 -2.745,0.972 -2.23,7.434 l -0.065,50.039 c 0,0 -0.45,3.946 4.01,6.061 z" /></g><g
         transform="translate(950.6936,581.6786)"
         id="g232"><path
           id="path234"
           style="fill:#ffffff;fill-opacity:1;fill-rule:nonzero;stroke:none"
           d="m 0,0 v -13.21 c 0,0 -1.716,-4.118 4.975,-6.605 l 44.111,-25.757 c 0,0 2.329,-1.748 5.16,0.215 l 27.97,16.211 c 0.95,0.55 1.743,1.331 2.309,2.272 0.713,1.188 1.975,3.311 4.172,7.059 l 9.779,16.984 -42.311,-24.061 c -4.396,-2.852 -5.683,-2.038 -9.114,-0.215 z" /></g><g
         transform="translate(1037.8468,650.6034)"
         id="g236"><path
           id="path238"
           style="fill:#ffffff;fill-opacity:1;fill-rule:nonzero;stroke:none"
           d="m 0,0 0.417,-50.221 c 0.02,-2.524 -1.306,-4.867 -3.481,-6.149 l -47.926,-28.235 12.166,-7.315 c 1.351,-0.841 3.056,-0.868 4.433,-0.069 l 46.781,27.131 c 1.551,0.889 2.507,2.54 2.507,4.328 v 33.179 c 0,1.068 -0.282,2.118 -0.817,3.043 z" /></g><g
         transform="translate(971.7099,676.1789)"
         id="g240"><path
           id="path242"
           style="fill:#ffffff;fill-opacity:1;fill-rule:nonzero;stroke:none"
           d="m 0,0 43.155,-24.05 c 1.917,-1.068 3.099,-3.095 3.086,-5.289 l -0.348,-56.583 12.527,6.859 c 1.742,0.953 2.822,2.784 2.814,4.77 l -0.231,53.912 c -0.008,1.904 -1.044,3.656 -2.709,4.581 L 31.11,-0.699 c -1.467,0.856 -2.348,0.772 -4.046,0.772 z" /></g><g
         transform="translate(825.7837,445.8349)"
         id="g244"><path
           id="path246"
           style="fill:#ffffff;fill-opacity:1;fill-rule:nonzero;stroke:none"
           d="m 0,0 40.516,62.449 c 2.367,3.649 6.48,5.782 10.826,5.615 l 10.132,-0.39 C 64.542,67.556 66,64.222 63.778,61.111 L 12.738,-18.07 c -2.806,-4.307 -7.436,-6.175 -12.574,-6.041 -5.536,0.144 -10.857,2.328 -13.878,6.969 l -50.227,77.179 c -1.191,4.074 -1.948,6.407 3.394,7.514 l 4.364,0.638 c 6.464,0.945 12.888,-1.95 16.462,-7.418 z" /></g><g
         transform="translate(901.3022,507.2793)"
         id="g248"><path
           id="path250"
           style="fill:#ffffff;fill-opacity:1;fill-rule:nonzero;stroke:none"
           d="M 0,0 -0.069,-80.186 C -0.072,-83.155 1.698,-85.074 5,-85.393 l 10.963,0.035 c 3.037,0.316 4.519,2.082 4.519,5.284 l 0.222,81.979 c 0,2.77 -2.119,4.169 -4.889,4.169 L 5.741,6.222 C 1.825,6.222 0,3.916 0,0" /></g><g
         transform="translate(939.117,507.8887)"
         id="g252"><path
           id="path254"
           style="fill:#ffffff;fill-opacity:1;fill-rule:nonzero;stroke:none"
           d="m 0,0 v -8.535 c 0,-2.741 2.222,-4.963 4.963,-4.963 l 84.963,0.296 c 4.32,0.055 6.881,-2.199 6.815,-6.518 l 0.305,-40.442 c 0.076,-3.414 -2.672,-6.222 -6.087,-6.219 L 5.652,-66.3 C 2.517,-66.348 0,-68.904 0,-72.04 v -8.747 c 0,-2.881 2.335,-5.216 5.215,-5.216 h 91.348 c 11.635,0 21.067,9.432 21.067,21.067 v 49.804 c 0,11.823 -9.621,21.387 -21.443,21.316 L 5.613,5.646 C 2.508,5.628 0,3.105 0,0" /></g><g
         transform="translate(1072.9781,422.5108)"
         id="g256"><path
           id="path258"
           style="fill:#ffffff;fill-opacity:1;fill-rule:nonzero;stroke:none"
           d="m 0,0 7.74,-0.708 c 0.919,-0.084 1.849,-0.107 2.761,0.034 3.354,0.52 6.444,2.543 8.307,5.407 L 59.768,67.731 99.735,5.85 c 0.872,-1.204 2.734,-3.433 5.893,-5.019 2.682,-1.346 5.138,-1.646 6.567,-1.711 0.463,-0.006 0.926,-0.013 1.39,-0.02 0.567,0.041 1.166,0.101 1.794,0.188 0.852,0.12 1.644,0.272 2.368,0.442 l 1.725,0.446 c 6.019,1.833 5.148,2.963 3.725,6.783 L 73.63,84.179 C 67.166,94.25 49.546,92.917 46.623,85.291 L -3.163,8.557 C -3.73,7.684 -4.197,6.747 -4.511,5.754 -4.725,5.082 -4.833,4.508 -5.026,3.508 -5.333,1.972 -2.861,0.444 0,0" /></g></g></g></svg>
