<?xml version="1.0" encoding="UTF-8" standalone="no"?>
<svg
   viewBox="0 0 581.63879 339.52448"
   height="339.52448"
   width="581.63879"
   xml:space="preserve"
   id="svg2"
   version="1.1"
   sodipodi:docname="logo.svg"
   xmlns:inkscape="http://www.inkscape.org/namespaces/inkscape"
   xmlns:sodipodi="http://sodipodi.sourceforge.net/DTD/sodipodi-0.dtd"
   xmlns="http://www.w3.org/2000/svg"
   xmlns:svg="http://www.w3.org/2000/svg"
   xmlns:rdf="http://www.w3.org/1999/02/22-rdf-syntax-ns#"
   xmlns:cc="http://creativecommons.org/ns#"
   xmlns:dc="http://purl.org/dc/elements/1.1/"><sodipodi:namedview
     id="namedview1"
     pagecolor="#ffffff"
     bordercolor="#000000"
     borderopacity="0.25"
     inkscape:showpageshadow="2"
     inkscape:pageopacity="0.0"
     inkscape:pagecheckerboard="0"
     inkscape:deskcolor="#d1d1d1" /><metadata
     id="metadata8"><rdf:RDF><cc:Work
         rdf:about=""><dc:format>image/svg+xml</dc:format><dc:type
           rdf:resource="http://purl.org/dc/dcmitype/StillImage" /></cc:Work></rdf:RDF></metadata><defs
     id="defs6"><clipPath
       id="clipPath18"
       clipPathUnits="userSpaceOnUse"><path
         id="path16"
         d="M 0,1080 H 1920 V 0 H 0 Z" /></clipPath><linearGradient
       id="linearGradient404"
       spreadMethod="pad"
       gradientTransform="matrix(97.665787,0,0,-97.665787,185.23761,654.17236)"
       gradientUnits="userSpaceOnUse"
       y2="0"
       x2="1"
       y1="0"
       x1="0"><stop
         id="stop392"
         offset="0"
         style="stop-opacity:1;stop-color:#cce0f4" /><stop
         id="stop394"
         offset="0.14309408"
         style="stop-opacity:1;stop-color:#cce0f4" /><stop
         id="stop396"
         offset="0.567416"
         style="stop-opacity:1;stop-color:#1e9cd7" /><stop
         id="stop398"
         offset="0.865168"
         style="stop-opacity:1;stop-color:#0075be" /><stop
         id="stop400"
         offset="0.994382"
         style="stop-opacity:1;stop-color:#005b97" /><stop
         id="stop402"
         offset="1"
         style="stop-opacity:1;stop-color:#005b97" /></linearGradient><linearGradient
       id="linearGradient424"
       spreadMethod="pad"
       gradientTransform="matrix(0,45.769459,45.769459,0,234.07051,631.28766)"
       gradientUnits="userSpaceOnUse"
       y2="0"
       x2="1"
       y1="0"
       x1="0"><stop
         id="stop420"
         offset="0"
         style="stop-opacity:1;stop-color:#003dd4" /><stop
         id="stop422"
         offset="1"
         style="stop-opacity:1;stop-color:#01013c" /></linearGradient><linearGradient
       id="linearGradient452"
       spreadMethod="pad"
       gradientTransform="matrix(97.665787,0,0,-97.665787,185.48117,654.13739)"
       gradientUnits="userSpaceOnUse"
       y2="0"
       x2="1"
       y1="0"
       x1="0"><stop
         id="stop440"
         offset="0"
         style="stop-opacity:1;stop-color:#cce0f4" /><stop
         id="stop442"
         offset="0.14309408"
         style="stop-opacity:1;stop-color:#cce0f4" /><stop
         id="stop444"
         offset="0.567416"
         style="stop-opacity:1;stop-color:#1e9cd7" /><stop
         id="stop446"
         offset="0.865168"
         style="stop-opacity:1;stop-color:#0075be" /><stop
         id="stop448"
         offset="0.994382"
         style="stop-opacity:1;stop-color:#005b97" /><stop
         id="stop450"
         offset="1"
         style="stop-opacity:1;stop-color:#005b97" /></linearGradient><linearGradient
       id="linearGradient472"
       spreadMethod="pad"
       gradientTransform="matrix(0,45.769459,45.769459,0,234.31406,631.25269)"
       gradientUnits="userSpaceOnUse"
       y2="0"
       x2="1"
       y1="0"
       x1="0"><stop
         id="stop468"
         offset="0"
         style="stop-opacity:1;stop-color:#003dd4" /><stop
         id="stop470"
         offset="1"
         style="stop-opacity:1;stop-color:#01013c" /></linearGradient><linearGradient
       id="linearGradient500"
       spreadMethod="pad"
       gradientTransform="matrix(97.665787,0,0,-97.665787,185.70941,654.13739)"
       gradientUnits="userSpaceOnUse"
       y2="0"
       x2="1"
       y1="0"
       x1="0"><stop
         id="stop488"
         offset="0"
         style="stop-opacity:1;stop-color:#cce0f4" /><stop
         id="stop490"
         offset="0.14309408"
         style="stop-opacity:1;stop-color:#cce0f4" /><stop
         id="stop492"
         offset="0.567416"
         style="stop-opacity:1;stop-color:#1e9cd7" /><stop
         id="stop494"
         offset="0.865168"
         style="stop-opacity:1;stop-color:#0075be" /><stop
         id="stop496"
         offset="0.994382"
         style="stop-opacity:1;stop-color:#005b97" /><stop
         id="stop498"
         offset="1"
         style="stop-opacity:1;stop-color:#005b97" /></linearGradient><linearGradient
       id="linearGradient520"
       spreadMethod="pad"
       gradientTransform="matrix(0,45.769459,45.769459,0,234.5423,631.25269)"
       gradientUnits="userSpaceOnUse"
       y2="0"
       x2="1"
       y1="0"
       x1="0"><stop
         id="stop516"
         offset="0"
         style="stop-opacity:1;stop-color:#003dd4" /><stop
         id="stop518"
         offset="1"
         style="stop-opacity:1;stop-color:#01013c" /></linearGradient><linearGradient
       id="linearGradient548"
       spreadMethod="pad"
       gradientTransform="matrix(97.665787,0,0,-97.665787,185.70941,654.05798)"
       gradientUnits="userSpaceOnUse"
       y2="0"
       x2="1"
       y1="0"
       x1="0"><stop
         id="stop536"
         offset="0"
         style="stop-opacity:1;stop-color:#cce0f4" /><stop
         id="stop538"
         offset="0.14309408"
         style="stop-opacity:1;stop-color:#cce0f4" /><stop
         id="stop540"
         offset="0.567416"
         style="stop-opacity:1;stop-color:#1e9cd7" /><stop
         id="stop542"
         offset="0.865168"
         style="stop-opacity:1;stop-color:#0075be" /><stop
         id="stop544"
         offset="0.994382"
         style="stop-opacity:1;stop-color:#005b97" /><stop
         id="stop546"
         offset="1"
         style="stop-opacity:1;stop-color:#005b97" /></linearGradient><linearGradient
       id="linearGradient568"
       spreadMethod="pad"
       gradientTransform="matrix(0,45.769459,45.769459,0,234.5423,631.17328)"
       gradientUnits="userSpaceOnUse"
       y2="0"
       x2="1"
       y1="0"
       x1="0"><stop
         id="stop564"
         offset="0"
         style="stop-opacity:1;stop-color:#003dd4" /><stop
         id="stop566"
         offset="1"
         style="stop-opacity:1;stop-color:#01013c" /></linearGradient><linearGradient
       id="linearGradient596"
       spreadMethod="pad"
       gradientTransform="matrix(97.665787,0,0,-97.665787,186.13402,654.29413)"
       gradientUnits="userSpaceOnUse"
       y2="0"
       x2="1"
       y1="0"
       x1="0"><stop
         id="stop584"
         offset="0"
         style="stop-opacity:1;stop-color:#cce0f4" /><stop
         id="stop586"
         offset="0.14309408"
         style="stop-opacity:1;stop-color:#cce0f4" /><stop
         id="stop588"
         offset="0.567416"
         style="stop-opacity:1;stop-color:#1e9cd7" /><stop
         id="stop590"
         offset="0.865168"
         style="stop-opacity:1;stop-color:#0075be" /><stop
         id="stop592"
         offset="0.994382"
         style="stop-opacity:1;stop-color:#005b97" /><stop
         id="stop594"
         offset="1"
         style="stop-opacity:1;stop-color:#005b97" /></linearGradient><linearGradient
       id="linearGradient616"
       spreadMethod="pad"
       gradientTransform="matrix(0,45.769459,45.769459,0,234.9669,631.40942)"
       gradientUnits="userSpaceOnUse"
       y2="0"
       x2="1"
       y1="0"
       x1="0"><stop
         id="stop612"
         offset="0"
         style="stop-opacity:1;stop-color:#003dd4" /><stop
         id="stop614"
         offset="1"
         style="stop-opacity:1;stop-color:#01013c" /></linearGradient><linearGradient
       id="linearGradient644"
       spreadMethod="pad"
       gradientTransform="matrix(97.82061,0,0,-97.82061,185.03755,654.01874)"
       gradientUnits="userSpaceOnUse"
       y2="0"
       x2="1"
       y1="0"
       x1="0"><stop
         id="stop632"
         offset="0"
         style="stop-opacity:1;stop-color:#cce0f4" /><stop
         id="stop634"
         offset="0.14309408"
         style="stop-opacity:1;stop-color:#cce0f4" /><stop
         id="stop636"
         offset="0.567416"
         style="stop-opacity:1;stop-color:#1e9cd7" /><stop
         id="stop638"
         offset="0.865168"
         style="stop-opacity:1;stop-color:#0075be" /><stop
         id="stop640"
         offset="0.994382"
         style="stop-opacity:1;stop-color:#005b97" /><stop
         id="stop642"
         offset="1"
         style="stop-opacity:1;stop-color:#005b97" /></linearGradient><linearGradient
       id="linearGradient664"
       spreadMethod="pad"
       gradientTransform="matrix(0,45.441608,45.441608,0,233.94786,631.29791)"
       gradientUnits="userSpaceOnUse"
       y2="0"
       x2="1"
       y1="0"
       x1="0"><stop
         id="stop660"
         offset="0"
         style="stop-opacity:1;stop-color:#003dd4" /><stop
         id="stop662"
         offset="1"
         style="stop-opacity:1;stop-color:#01013c" /></linearGradient><linearGradient
       id="linearGradient692"
       spreadMethod="pad"
       gradientTransform="matrix(66.312561,0,0,-66.312561,181.05885,608.65369)"
       gradientUnits="userSpaceOnUse"
       y2="0"
       x2="1"
       y1="0"
       x1="0"><stop
         id="stop680"
         offset="0"
         style="stop-opacity:1;stop-color:#cce0f4" /><stop
         id="stop682"
         offset="0.14309408"
         style="stop-opacity:1;stop-color:#cce0f4" /><stop
         id="stop684"
         offset="0.567416"
         style="stop-opacity:1;stop-color:#1e9cd7" /><stop
         id="stop686"
         offset="0.865168"
         style="stop-opacity:1;stop-color:#0075be" /><stop
         id="stop688"
         offset="0.994382"
         style="stop-opacity:1;stop-color:#005b97" /><stop
         id="stop690"
         offset="1"
         style="stop-opacity:1;stop-color:#005b97" /></linearGradient><linearGradient
       id="linearGradient712"
       spreadMethod="pad"
       gradientTransform="matrix(0,91.580902,91.580902,0,214.21513,562.86328)"
       gradientUnits="userSpaceOnUse"
       y2="0"
       x2="1"
       y1="0"
       x1="0"><stop
         id="stop708"
         offset="0"
         style="stop-opacity:1;stop-color:#003dd4" /><stop
         id="stop710"
         offset="1"
         style="stop-opacity:1;stop-color:#01013c" /></linearGradient><linearGradient
       id="linearGradient740"
       spreadMethod="pad"
       gradientTransform="matrix(61.667519,0,0,-61.667519,201.00145,579.28656)"
       gradientUnits="userSpaceOnUse"
       y2="0"
       x2="1"
       y1="0"
       x1="0"><stop
         id="stop728"
         offset="0"
         style="stop-opacity:1;stop-color:#cce0f4" /><stop
         id="stop730"
         offset="0.14309408"
         style="stop-opacity:1;stop-color:#cce0f4" /><stop
         id="stop732"
         offset="0.567416"
         style="stop-opacity:1;stop-color:#1e9cd7" /><stop
         id="stop734"
         offset="0.865168"
         style="stop-opacity:1;stop-color:#0075be" /><stop
         id="stop736"
         offset="0.994382"
         style="stop-opacity:1;stop-color:#005b97" /><stop
         id="stop738"
         offset="1"
         style="stop-opacity:1;stop-color:#005b97" /></linearGradient><linearGradient
       id="linearGradient760"
       spreadMethod="pad"
       gradientTransform="matrix(0,86.388603,86.388603,0,231.83521,536.09222)"
       gradientUnits="userSpaceOnUse"
       y2="0"
       x2="1"
       y1="0"
       x1="0"><stop
         id="stop756"
         offset="0"
         style="stop-opacity:1;stop-color:#003dd4" /><stop
         id="stop758"
         offset="1"
         style="stop-opacity:1;stop-color:#01013c" /></linearGradient><linearGradient
       id="linearGradient788"
       spreadMethod="pad"
       gradientTransform="matrix(98.673355,0,0,-98.673355,220.49649,559.53412)"
       gradientUnits="userSpaceOnUse"
       y2="0"
       x2="1"
       y1="0"
       x1="0"><stop
         id="stop776"
         offset="0"
         style="stop-opacity:1;stop-color:#cce0f4" /><stop
         id="stop778"
         offset="0.14309408"
         style="stop-opacity:1;stop-color:#cce0f4" /><stop
         id="stop780"
         offset="0.567416"
         style="stop-opacity:1;stop-color:#1e9cd7" /><stop
         id="stop782"
         offset="0.865168"
         style="stop-opacity:1;stop-color:#0075be" /><stop
         id="stop784"
         offset="0.994382"
         style="stop-opacity:1;stop-color:#005b97" /><stop
         id="stop786"
         offset="1"
         style="stop-opacity:1;stop-color:#005b97" /></linearGradient><linearGradient
       id="linearGradient808"
       spreadMethod="pad"
       gradientTransform="matrix(0,46.28894,46.28894,0,269.83316,536.38965)"
       gradientUnits="userSpaceOnUse"
       y2="0"
       x2="1"
       y1="0"
       x1="0"><stop
         id="stop804"
         offset="0"
         style="stop-opacity:1;stop-color:#003dd4" /><stop
         id="stop806"
         offset="1"
         style="stop-opacity:1;stop-color:#01013c" /></linearGradient><linearGradient
       id="linearGradient836"
       spreadMethod="pad"
       gradientTransform="matrix(65.887482,0,0,-65.887482,256.85657,605.31842)"
       gradientUnits="userSpaceOnUse"
       y2="0"
       x2="1"
       y1="0"
       x1="0"><stop
         id="stop824"
         offset="0"
         style="stop-opacity:1;stop-color:#cce0f4" /><stop
         id="stop826"
         offset="0.14309408"
         style="stop-opacity:1;stop-color:#cce0f4" /><stop
         id="stop828"
         offset="0.567416"
         style="stop-opacity:1;stop-color:#1e9cd7" /><stop
         id="stop830"
         offset="0.865168"
         style="stop-opacity:1;stop-color:#0075be" /><stop
         id="stop832"
         offset="0.994382"
         style="stop-opacity:1;stop-color:#005b97" /><stop
         id="stop834"
         offset="1"
         style="stop-opacity:1;stop-color:#005b97" /></linearGradient><linearGradient
       id="linearGradient856"
       spreadMethod="pad"
       gradientTransform="matrix(0,92.569878,92.569878,0,289.80029,559.03351)"
       gradientUnits="userSpaceOnUse"
       y2="0"
       x2="1"
       y1="0"
       x1="0"><stop
         id="stop852"
         offset="0"
         style="stop-opacity:1;stop-color:#003dd4" /><stop
         id="stop854"
         offset="1"
         style="stop-opacity:1;stop-color:#01013c" /></linearGradient><linearGradient
       id="linearGradient884"
       spreadMethod="pad"
       gradientTransform="matrix(61.233677,0,0,-61.233677,241.70988,634.25537)"
       gradientUnits="userSpaceOnUse"
       y2="0"
       x2="1"
       y1="0"
       x1="0"><stop
         id="stop872"
         offset="0"
         style="stop-opacity:1;stop-color:#cce0f4" /><stop
         id="stop874"
         offset="0.14309408"
         style="stop-opacity:1;stop-color:#cce0f4" /><stop
         id="stop876"
         offset="0.567416"
         style="stop-opacity:1;stop-color:#1e9cd7" /><stop
         id="stop878"
         offset="0.865168"
         style="stop-opacity:1;stop-color:#0075be" /><stop
         id="stop880"
         offset="0.994382"
         style="stop-opacity:1;stop-color:#005b97" /><stop
         id="stop882"
         offset="1"
         style="stop-opacity:1;stop-color:#005b97" /></linearGradient><linearGradient
       id="linearGradient904"
       spreadMethod="pad"
       gradientTransform="matrix(0,85.99736,85.99736,0,272.32672,591.25665)"
       gradientUnits="userSpaceOnUse"
       y2="0"
       x2="1"
       y1="0"
       x1="0"><stop
         id="stop900"
         offset="0"
         style="stop-opacity:1;stop-color:#003dd4" /><stop
         id="stop902"
         offset="1"
         style="stop-opacity:1;stop-color:#01013c" /></linearGradient><linearGradient
       id="linearGradient932"
       spreadMethod="pad"
       gradientTransform="matrix(129.65019,0,0,-129.65019,30.98337,468.9588)"
       gradientUnits="userSpaceOnUse"
       y2="0"
       x2="1"
       y1="0"
       x1="0"><stop
         id="stop920"
         offset="0"
         style="stop-opacity:1;stop-color:#cce0f4" /><stop
         id="stop922"
         offset="0.14309408"
         style="stop-opacity:1;stop-color:#cce0f4" /><stop
         id="stop924"
         offset="0.567416"
         style="stop-opacity:1;stop-color:#1e9cd7" /><stop
         id="stop926"
         offset="0.865168"
         style="stop-opacity:1;stop-color:#0075be" /><stop
         id="stop928"
         offset="0.994382"
         style="stop-opacity:1;stop-color:#005b97" /><stop
         id="stop930"
         offset="1"
         style="stop-opacity:1;stop-color:#005b97" /></linearGradient><linearGradient
       id="linearGradient952"
       spreadMethod="pad"
       gradientTransform="matrix(0,92.483383,92.483383,0,95.808472,422.7171)"
       gradientUnits="userSpaceOnUse"
       y2="0"
       x2="1"
       y1="0"
       x1="0"><stop
         id="stop948"
         offset="0"
         style="stop-opacity:1;stop-color:#003dd4" /><stop
         id="stop950"
         offset="1"
         style="stop-opacity:1;stop-color:#01013c" /></linearGradient><linearGradient
       id="linearGradient980"
       spreadMethod="pad"
       gradientTransform="matrix(20.773127,0,0,-20.773127,171.23277,468.69382)"
       gradientUnits="userSpaceOnUse"
       y2="0"
       x2="1"
       y1="0"
       x1="0"><stop
         id="stop968"
         offset="0"
         style="stop-opacity:1;stop-color:#cce0f4" /><stop
         id="stop970"
         offset="0.14309408"
         style="stop-opacity:1;stop-color:#cce0f4" /><stop
         id="stop972"
         offset="0.567416"
         style="stop-opacity:1;stop-color:#1e9cd7" /><stop
         id="stop974"
         offset="0.865168"
         style="stop-opacity:1;stop-color:#0075be" /><stop
         id="stop976"
         offset="0.994382"
         style="stop-opacity:1;stop-color:#005b97" /><stop
         id="stop978"
         offset="1"
         style="stop-opacity:1;stop-color:#005b97" /></linearGradient><linearGradient
       id="linearGradient1000"
       spreadMethod="pad"
       gradientTransform="matrix(0,91.615478,91.615478,0,181.61932,422.88608)"
       gradientUnits="userSpaceOnUse"
       y2="0"
       x2="1"
       y1="0"
       x1="0"><stop
         id="stop996"
         offset="0"
         style="stop-opacity:1;stop-color:#003dd4" /><stop
         id="stop998"
         offset="1"
         style="stop-opacity:1;stop-color:#01013c" /></linearGradient><linearGradient
       id="linearGradient1028"
       spreadMethod="pad"
       gradientTransform="matrix(117.62963,0,0,-117.62963,209.117,468.97977)"
       gradientUnits="userSpaceOnUse"
       y2="0"
       x2="1"
       y1="0"
       x1="0"><stop
         id="stop1016"
         offset="0"
         style="stop-opacity:1;stop-color:#cce0f4" /><stop
         id="stop1018"
         offset="0.14309408"
         style="stop-opacity:1;stop-color:#cce0f4" /><stop
         id="stop1020"
         offset="0.567416"
         style="stop-opacity:1;stop-color:#1e9cd7" /><stop
         id="stop1022"
         offset="0.865168"
         style="stop-opacity:1;stop-color:#0075be" /><stop
         id="stop1024"
         offset="0.994382"
         style="stop-opacity:1;stop-color:#005b97" /><stop
         id="stop1026"
         offset="1"
         style="stop-opacity:1;stop-color:#005b97" /></linearGradient><linearGradient
       id="linearGradient1048"
       spreadMethod="pad"
       gradientTransform="matrix(0,92.187393,92.187393,0,267.93182,422.88608)"
       gradientUnits="userSpaceOnUse"
       y2="0"
       x2="1"
       y1="0"
       x1="0"><stop
         id="stop1044"
         offset="0"
         style="stop-opacity:1;stop-color:#003dd4" /><stop
         id="stop1046"
         offset="1"
         style="stop-opacity:1;stop-color:#01013c" /></linearGradient><linearGradient
       id="linearGradient1076"
       spreadMethod="pad"
       gradientTransform="matrix(129.28607,0,0,-129.28607,337.92633,468.74692)"
       gradientUnits="userSpaceOnUse"
       y2="0"
       x2="1"
       y1="0"
       x1="0"><stop
         id="stop1064"
         offset="0"
         style="stop-opacity:1;stop-color:#cce0f4" /><stop
         id="stop1066"
         offset="0.14309408"
         style="stop-opacity:1;stop-color:#cce0f4" /><stop
         id="stop1068"
         offset="0.567416"
         style="stop-opacity:1;stop-color:#1e9cd7" /><stop
         id="stop1070"
         offset="0.865168"
         style="stop-opacity:1;stop-color:#0075be" /><stop
         id="stop1072"
         offset="0.994382"
         style="stop-opacity:1;stop-color:#005b97" /><stop
         id="stop1074"
         offset="1"
         style="stop-opacity:1;stop-color:#005b97" /></linearGradient><linearGradient
       id="linearGradient1096"
       spreadMethod="pad"
       gradientTransform="matrix(0,92.271316,92.271316,0,402.56937,422.61127)"
       gradientUnits="userSpaceOnUse"
       y2="0"
       x2="1"
       y1="0"
       x1="0"><stop
         id="stop1092"
         offset="0"
         style="stop-opacity:1;stop-color:#003dd4" /><stop
         id="stop1094"
         offset="1"
         style="stop-opacity:1;stop-color:#01013c" /></linearGradient><clipPath
       id="clipPath1106"
       clipPathUnits="userSpaceOnUse"><path
         id="path1104"
         d="M 0,1080 H 1920 V 0 H 0 Z" /></clipPath><linearGradient
       id="linearGradient1128"
       spreadMethod="pad"
       gradientTransform="matrix(157.47084,0,0,-157.47084,472.46976,125.18852)"
       gradientUnits="userSpaceOnUse"
       y2="0"
       x2="1"
       y1="0"
       x1="0"><stop
         id="stop1122"
         offset="0"
         style="stop-opacity:1;stop-color:#003dd4" /><stop
         id="stop1124"
         offset="0.20091254"
         style="stop-opacity:1;stop-color:#01013c" /><stop
         id="stop1126"
         offset="1"
         style="stop-opacity:1;stop-color:#01013c" /></linearGradient><clipPath
       id="clipPath1138"
       clipPathUnits="userSpaceOnUse"><path
         id="path1136"
         d="M 0,1080 H 1920 V 0 H 0 Z" /></clipPath><linearGradient
       id="linearGradient1164"
       spreadMethod="pad"
       gradientTransform="matrix(0,-157.47084,-157.47084,0,376.09512,203.92393)"
       gradientUnits="userSpaceOnUse"
       y2="0"
       x2="1"
       y1="0"
       x1="0"><stop
         id="stop1156"
         offset="0"
         style="stop-opacity:1;stop-color:#003dd4" /><stop
         id="stop1158"
         offset="0.019325"
         style="stop-opacity:1;stop-color:#003dd4" /><stop
         id="stop1160"
         offset="0.81284126"
         style="stop-opacity:1;stop-color:#00074e" /><stop
         id="stop1162"
         offset="1"
         style="stop-opacity:1;stop-color:#00074e" /></linearGradient><clipPath
       id="clipPath1174"
       clipPathUnits="userSpaceOnUse"><path
         id="path1172"
         d="M 0,1080 H 1920 V 0 H 0 Z" /></clipPath></defs><g
     transform="matrix(1.3333333,0,0,-1.3333333,-1026.0571,857.85798)"
     id="g10"><g
       clip-path="url(#clipPath18)"
       id="g14"
       transform="translate(8.5596144,-32.860641)"><g
         transform="translate(288.0307,982.2888)"
         id="g20"><path
           id="path22"
           style="fill:#333333;fill-opacity:1;fill-rule:nonzero;stroke:none"
           d="m 0,0 -46.383,27.062 c 0,0 -2.974,2.288 -8.693,-1.372 -5.719,-3.66 -19.901,-10.751 -19.901,-10.751 0,0 -10.751,-9.608 -13.496,-14.869 -2.745,-5.261 -7.32,-14.64 -7.32,-14.64 l 44.835,24.934 c 0,0 5.261,0.934 9.378,-3.765 l 43.234,-24.6 c 0,0 0.452,15.765 0.057,16.413 C 1.353,-1.002 0,0 0,0" /></g><g
         transform="translate(288.2743,982.2538)"
         id="g24"><path
           id="path26"
           style="fill:#333333;fill-opacity:1;fill-rule:nonzero;stroke:none"
           d="m 0,0 -46.383,27.062 c 0,0 -2.974,2.288 -8.693,-1.372 -5.719,-3.66 -19.901,-10.751 -19.901,-10.751 0,0 -10.751,-9.608 -13.496,-14.869 -2.745,-5.261 -7.32,-14.64 -7.32,-14.64 l 44.835,24.934 c 0,0 2.244,1.779 9.692,-3.397 l 42.92,-24.968 c 0,0 0.452,15.765 0.057,16.412 C 1.353,-1.002 0,0 0,0" /></g><g
         transform="translate(288.5025,982.2538)"
         id="g28"><path
           id="path30"
           style="fill:#333333;fill-opacity:1;fill-rule:nonzero;stroke:none"
           d="m 0,0 -46.383,27.062 c 0,0 -2.974,2.288 -8.693,-1.372 -5.719,-3.66 -19.901,-10.751 -19.901,-10.751 0,0 -10.751,-9.608 -13.496,-14.869 -2.745,-5.261 -7.32,-14.64 -7.32,-14.64 l 44.835,24.934 c 0,0 2.244,1.779 9.692,-3.397 l 42.92,-24.968 c 0,0 0.452,15.765 0.057,16.412 C 1.353,-1.002 0,0 0,0" /></g><g
         transform="translate(288.5025,982.1744)"
         id="g32"><path
           id="path34"
           style="fill:#333333;fill-opacity:1;fill-rule:nonzero;stroke:none"
           d="m 0,0 -46.383,27.062 c 0,0 -2.974,2.288 -8.693,-1.372 -5.719,-3.66 -19.901,-10.751 -19.901,-10.751 0,0 -10.751,-9.608 -13.496,-14.869 -2.745,-5.261 -7.32,-14.64 -7.32,-14.64 l 43.843,24.588 c 0,0 2.95,2.462 10.684,-3.051 l 42.92,-24.968 c 0,0 0.452,15.765 0.057,16.413 C 1.353,-1.002 0,0 0,0" /></g><g
         transform="translate(288.9272,982.4106)"
         id="g36"><path
           id="path38"
           style="fill:#333333;fill-opacity:1;fill-rule:nonzero;stroke:none"
           d="m 0,0 -46.383,27.062 c 0,0 -2.974,2.288 -8.693,-1.372 -5.719,-3.66 -19.901,-10.751 -19.901,-10.751 0,0 -10.751,-9.608 -13.496,-14.869 -2.745,-5.261 -7.32,-14.64 -7.32,-14.64 l 43.843,24.588 c 0,0 2.95,2.462 10.684,-3.051 l 42.92,-24.968 c 0,0 0.452,15.765 0.057,16.412 C 1.353,-1.002 0,0 0,0" /></g><g
         transform="translate(287.8307,981.9713)"
         id="g40"><path
           id="path42"
           style="fill:#333333;fill-opacity:1;fill-rule:nonzero;stroke:none"
           d="m 0,0 -46.383,27.062 c 0,0 -2.974,2.288 -8.693,-1.372 -5.719,-3.66 -19.901,-10.751 -19.901,-10.751 0,0 -10.751,-9.608 -13.496,-14.869 -2.745,-5.261 -7.32,-14.64 -7.32,-14.64 l 43.843,24.588 c 0,0 1.832,1.42 4.826,0.636 1.614,-0.423 3.149,-1.756 6.224,-3.359 L 2.02,-17.673 c 0,0 0.086,15.437 -0.309,16.084 C 1.353,-1.002 0,0 0,0" /></g><g
         transform="translate(254.3714,979.5852)"
         id="g44"><path
           id="path46"
           style="fill:#333333;fill-opacity:1;fill-rule:nonzero;stroke:none"
           d="m 0,0 -47.866,-27.964 c 0,0 -3.174,-0.858 -3.345,-5.49 l -0.601,-50.268 c 0,0 -13.896,17.156 -14.496,30.538 v 27.021 c 0,0 -0.294,5.211 4.074,6.991 l 46.107,26.645 c 0,0 2.059,1.191 4.118,-0.611 z" /></g><g
         transform="translate(222.8899,955.4808)"
         id="g48"><path
           id="path50"
           style="fill:#333333;fill-opacity:1;fill-rule:nonzero;stroke:none"
           d="m 0,0 v -55.071 c 0,0 -0.801,-4.289 4.06,-7.149 L 46.779,-86.238 H 24.362 c 0,0 -5.833,-1.544 -17.385,5.261 l -19.558,11.152 c 0,0 -2.745,0.972 -2.23,7.434 l -0.065,50.039 c 0,0 -0.45,3.946 4.01,6.061 z" /></g><g
         transform="translate(227.6936,915.6786)"
         id="g52"><path
           id="path54"
           style="fill:#333333;fill-opacity:1;fill-rule:nonzero;stroke:none"
           d="m 0,0 v -13.21 c 0,0 -1.716,-4.118 4.975,-6.605 l 44.111,-25.757 c 0,0 2.329,-1.748 5.16,0.215 l 27.97,16.211 c 0.95,0.55 1.743,1.331 2.309,2.272 0.713,1.188 1.975,3.311 4.172,7.059 l 9.779,16.984 -42.311,-24.061 c -4.396,-2.852 -5.683,-2.038 -9.114,-0.215 z" /></g><g
         transform="translate(314.8468,984.6034)"
         id="g56"><path
           id="path58"
           style="fill:#333333;fill-opacity:1;fill-rule:nonzero;stroke:none"
           d="m 0,0 0.417,-50.221 c 0.02,-2.524 -1.306,-4.867 -3.481,-6.149 l -47.926,-28.235 12.166,-7.315 c 1.351,-0.841 3.056,-0.868 4.433,-0.069 l 46.781,27.131 c 1.551,0.889 2.507,2.54 2.507,4.328 v 33.179 c 0,1.068 -0.282,2.118 -0.817,3.043 z" /></g><g
         transform="translate(248.7099,1010.1789)"
         id="g60"><path
           id="path62"
           style="fill:#333333;fill-opacity:1;fill-rule:nonzero;stroke:none"
           d="m 0,0 43.155,-24.05 c 1.917,-1.068 3.099,-3.095 3.086,-5.289 l -0.348,-56.583 12.527,6.859 c 1.742,0.953 2.822,2.784 2.814,4.77 l -0.231,53.912 c -0.008,1.904 -1.044,3.656 -2.708,4.581 L 31.11,-0.699 c -1.467,0.856 -2.348,0.772 -4.046,0.772 z" /></g><g
         transform="translate(102.7837,779.8349)"
         id="g64"><path
           id="path66"
           style="fill:#333333;fill-opacity:1;fill-rule:nonzero;stroke:none"
           d="m 0,0 40.516,62.449 c 2.367,3.649 6.48,5.782 10.826,5.615 l 10.132,-0.39 C 64.542,67.556 66,64.222 63.778,61.111 L 12.738,-18.07 c -2.806,-4.307 -7.436,-6.175 -12.574,-6.041 -5.536,0.144 -10.857,2.328 -13.878,6.969 l -50.227,77.179 c -1.191,4.074 -1.948,6.407 3.394,7.514 l 4.364,0.638 c 6.464,0.945 12.888,-1.95 16.462,-7.418 z" /></g><g
         transform="translate(178.3022,841.2794)"
         id="g68"><path
           id="path70"
           style="fill:#333333;fill-opacity:1;fill-rule:nonzero;stroke:none"
           d="M 0,0 -0.069,-80.186 C -0.072,-83.155 1.698,-85.074 5,-85.393 l 10.963,0.035 c 3.037,0.316 4.518,2.082 4.518,5.284 l 0.223,81.979 c 0,2.77 -2.119,4.169 -4.889,4.169 L 5.741,6.222 C 1.825,6.222 0,3.916 0,0" /></g><g
         transform="translate(216.117,841.8887)"
         id="g72"><path
           id="path74"
           style="fill:#333333;fill-opacity:1;fill-rule:nonzero;stroke:none"
           d="m 0,0 v -8.535 c 0,-2.741 2.222,-4.963 4.963,-4.963 l 84.963,0.296 c 4.32,0.055 6.881,-2.199 6.815,-6.518 l 0.305,-40.442 c 0.076,-3.414 -2.672,-6.222 -6.087,-6.219 L 5.652,-66.3 C 2.517,-66.348 0,-68.904 0,-72.04 v -8.747 c 0,-2.881 2.335,-5.216 5.215,-5.216 h 91.348 c 11.635,0 21.067,9.432 21.067,21.067 v 49.804 c 0,11.823 -9.621,21.387 -21.443,21.316 L 5.613,5.646 C 2.508,5.628 0,3.105 0,0" /></g><g
         transform="translate(349.9781,756.5108)"
         id="g76"><path
           id="path78"
           style="fill:#333333;fill-opacity:1;fill-rule:nonzero;stroke:none"
           d="m 0,0 7.74,-0.708 c 0.919,-0.084 1.849,-0.107 2.761,0.034 3.355,0.52 6.444,2.543 8.307,5.407 L 59.768,67.731 99.735,5.85 c 0.872,-1.204 2.734,-3.433 5.893,-5.019 2.682,-1.346 5.138,-1.646 6.567,-1.711 0.463,-0.006 0.926,-0.013 1.39,-0.02 0.567,0.041 1.166,0.101 1.794,0.188 0.852,0.12 1.644,0.272 2.368,0.442 l 1.725,0.446 c 6.019,1.833 5.148,2.963 3.725,6.783 L 73.63,84.179 C 67.166,94.25 49.546,92.917 46.623,85.291 L -3.163,8.557 C -3.73,7.684 -4.197,6.747 -4.511,5.754 -4.725,5.082 -4.833,4.508 -5.026,3.508 -5.333,1.972 -2.861,0.444 0,0" /></g><g
         transform="translate(759.0308,982.2888)"
         id="g80"><path
           id="path82"
           style="fill:#003dd4;fill-opacity:1;fill-rule:nonzero;stroke:none"
           d="m 0,0 -46.383,27.062 c 0,0 -2.974,2.288 -8.693,-1.372 -5.719,-3.66 -19.901,-10.751 -19.901,-10.751 0,0 -10.751,-9.608 -13.496,-14.869 -2.745,-5.261 -7.32,-14.64 -7.32,-14.64 l 44.835,24.934 c 0,0 5.261,0.934 9.378,-3.765 l 43.234,-24.6 c 0,0 0.452,15.765 0.057,16.413 C 1.353,-1.002 0,0 0,0" /></g><g
         transform="translate(759.2743,982.2538)"
         id="g84"><path
           id="path86"
           style="fill:#003dd4;fill-opacity:1;fill-rule:nonzero;stroke:none"
           d="m 0,0 -46.383,27.062 c 0,0 -2.974,2.288 -8.693,-1.372 -5.719,-3.66 -19.901,-10.751 -19.901,-10.751 0,0 -10.751,-9.608 -13.496,-14.869 -2.745,-5.261 -7.32,-14.64 -7.32,-14.64 l 44.835,24.934 c 0,0 2.244,1.779 9.692,-3.397 l 42.92,-24.968 c 0,0 0.452,15.765 0.057,16.412 C 1.354,-1.002 0,0 0,0" /></g><g
         transform="translate(759.5026,982.2538)"
         id="g88"><path
           id="path90"
           style="fill:#003dd4;fill-opacity:1;fill-rule:nonzero;stroke:none"
           d="m 0,0 -46.383,27.062 c 0,0 -2.974,2.288 -8.693,-1.372 -5.719,-3.66 -19.901,-10.751 -19.901,-10.751 0,0 -10.751,-9.608 -13.496,-14.869 -2.745,-5.261 -7.32,-14.64 -7.32,-14.64 l 44.835,24.934 c 0,0 2.244,1.779 9.692,-3.397 l 42.92,-24.968 c 0,0 0.452,15.765 0.057,16.412 C 1.353,-1.002 0,0 0,0" /></g><g
         transform="translate(759.5026,982.1744)"
         id="g92"><path
           id="path94"
           style="fill:#003dd4;fill-opacity:1;fill-rule:nonzero;stroke:none"
           d="m 0,0 -46.383,27.062 c 0,0 -2.974,2.288 -8.693,-1.372 -5.719,-3.66 -19.901,-10.751 -19.901,-10.751 0,0 -10.751,-9.608 -13.496,-14.869 -2.745,-5.261 -7.32,-14.64 -7.32,-14.64 l 43.843,24.588 c 0,0 2.95,2.462 10.684,-3.051 l 42.92,-24.968 c 0,0 0.452,15.765 0.057,16.413 C 1.353,-1.002 0,0 0,0" /></g><g
         transform="translate(759.9271,982.4106)"
         id="g96"><path
           id="path98"
           style="fill:#003dd4;fill-opacity:1;fill-rule:nonzero;stroke:none"
           d="m 0,0 -46.383,27.062 c 0,0 -2.974,2.288 -8.693,-1.372 -5.719,-3.66 -19.901,-10.751 -19.901,-10.751 0,0 -10.751,-9.608 -13.496,-14.869 -2.745,-5.261 -7.32,-14.64 -7.32,-14.64 l 43.843,24.588 c 0,0 2.95,2.462 10.684,-3.051 l 42.92,-24.968 c 0,0 0.452,15.765 0.057,16.412 C 1.354,-1.002 0,0 0,0" /></g><g
         transform="translate(758.8307,981.9713)"
         id="g100"><path
           id="path102"
           style="fill:#003dd4;fill-opacity:1;fill-rule:nonzero;stroke:none"
           d="m 0,0 -46.383,27.062 c 0,0 -2.974,2.288 -8.693,-1.372 -5.719,-3.66 -19.901,-10.751 -19.901,-10.751 0,0 -10.751,-9.608 -13.496,-14.869 -2.745,-5.261 -7.32,-14.64 -7.32,-14.64 l 43.843,24.588 c 0,0 1.832,1.42 4.826,0.636 1.614,-0.423 3.149,-1.756 6.224,-3.359 L 2.02,-17.673 c 0,0 0.086,15.437 -0.309,16.084 C 1.353,-1.002 0,0 0,0" /></g><g
         transform="translate(725.3714,979.5852)"
         id="g104"><path
           id="path106"
           style="fill:#003dd4;fill-opacity:1;fill-rule:nonzero;stroke:none"
           d="m 0,0 -47.866,-27.964 c 0,0 -3.173,-0.858 -3.345,-5.49 l -0.601,-50.268 c 0,0 -13.896,17.156 -14.496,30.538 v 27.021 c 0,0 -0.294,5.211 4.074,6.991 l 46.107,26.645 c 0,0 2.059,1.191 4.118,-0.611 z" /></g><g
         transform="translate(693.8899,955.4808)"
         id="g108"><path
           id="path110"
           style="fill:#003dd4;fill-opacity:1;fill-rule:nonzero;stroke:none"
           d="m 0,0 v -55.071 c 0,0 -0.801,-4.289 4.06,-7.149 L 46.779,-86.238 H 24.362 c 0,0 -5.833,-1.544 -17.385,5.261 l -19.558,11.152 c 0,0 -2.745,0.972 -2.23,7.434 l -0.065,50.039 c 0,0 -0.45,3.946 4.01,6.061 z" /></g><g
         transform="translate(698.6936,915.6786)"
         id="g112"><path
           id="path114"
           style="fill:#003dd4;fill-opacity:1;fill-rule:nonzero;stroke:none"
           d="m 0,0 v -13.21 c 0,0 -1.716,-4.118 4.975,-6.605 l 44.111,-25.757 c 0,0 2.329,-1.748 5.16,0.215 l 27.97,16.211 c 0.95,0.55 1.743,1.331 2.309,2.272 0.713,1.188 1.975,3.311 4.172,7.059 l 9.779,16.984 -42.311,-24.061 c -4.396,-2.852 -5.683,-2.038 -9.114,-0.215 z" /></g><g
         transform="translate(785.8468,984.6034)"
         id="g116"><path
           id="path118"
           style="fill:#003dd4;fill-opacity:1;fill-rule:nonzero;stroke:none"
           d="m 0,0 0.417,-50.221 c 0.02,-2.524 -1.306,-4.867 -3.481,-6.149 l -47.926,-28.235 12.166,-7.315 c 1.351,-0.841 3.056,-0.868 4.433,-0.069 l 46.781,27.131 c 1.551,0.889 2.507,2.54 2.507,4.328 v 33.179 c 0,1.068 -0.282,2.118 -0.817,3.043 z" /></g><g
         transform="translate(719.7099,1010.1789)"
         id="g120"><path
           id="path122"
           style="fill:#003dd4;fill-opacity:1;fill-rule:nonzero;stroke:none"
           d="m 0,0 43.155,-24.05 c 1.917,-1.068 3.099,-3.095 3.086,-5.289 l -0.348,-56.583 12.527,6.859 c 1.742,0.953 2.822,2.784 2.814,4.77 l -0.231,53.912 c -0.008,1.904 -1.044,3.656 -2.708,4.581 L 31.11,-0.699 c -1.467,0.856 -2.348,0.772 -4.046,0.772 z" /></g><g
         transform="translate(573.7837,779.8349)"
         id="g124"><path
           id="path126"
           style="fill:#003dd4;fill-opacity:1;fill-rule:nonzero;stroke:none"
           d="m 0,0 40.516,62.449 c 2.367,3.649 6.48,5.782 10.826,5.615 l 10.132,-0.39 C 64.542,67.556 66,64.222 63.778,61.111 L 12.738,-18.07 c -2.806,-4.307 -7.436,-6.175 -12.574,-6.041 -5.536,0.144 -10.857,2.328 -13.878,6.969 l -50.227,77.179 c -1.191,4.074 -1.948,6.407 3.394,7.514 l 4.364,0.638 c 6.464,0.945 12.888,-1.95 16.462,-7.418 z" /></g><g
         transform="translate(649.3022,841.2794)"
         id="g128"><path
           id="path130"
           style="fill:#003dd4;fill-opacity:1;fill-rule:nonzero;stroke:none"
           d="M 0,0 -0.069,-80.186 C -0.072,-83.155 1.698,-85.074 5,-85.393 l 10.963,0.035 c 3.037,0.316 4.519,2.082 4.519,5.284 l 0.222,81.979 c 0,2.77 -2.119,4.169 -4.889,4.169 L 5.741,6.222 C 1.825,6.222 0,3.916 0,0" /></g><g
         transform="translate(687.117,841.8887)"
         id="g132"><path
           id="path134"
           style="fill:#003dd4;fill-opacity:1;fill-rule:nonzero;stroke:none"
           d="m 0,0 v -8.535 c 0,-2.741 2.222,-4.963 4.963,-4.963 l 84.963,0.296 c 4.32,0.055 6.881,-2.199 6.815,-6.518 l 0.305,-40.442 c 0.076,-3.414 -2.672,-6.222 -6.087,-6.219 L 5.652,-66.3 C 2.517,-66.348 0,-68.904 0,-72.04 v -8.747 c 0,-2.881 2.335,-5.216 5.215,-5.216 h 91.348 c 11.635,0 21.067,9.432 21.067,21.067 v 49.804 c 0,11.823 -9.621,21.387 -21.443,21.316 L 5.613,5.646 C 2.508,5.628 0,3.105 0,0" /></g><g
         transform="translate(820.9781,756.5108)"
         id="g136"><path
           id="path138"
           style="fill:#003dd4;fill-opacity:1;fill-rule:nonzero;stroke:none"
           d="m 0,0 7.741,-0.708 c 0.918,-0.084 1.848,-0.107 2.76,0.034 3.355,0.52 6.444,2.543 8.307,5.407 L 59.769,67.731 99.735,5.85 c 0.872,-1.204 2.734,-3.433 5.893,-5.019 2.682,-1.346 5.138,-1.646 6.567,-1.711 0.463,-0.006 0.926,-0.013 1.39,-0.02 0.567,0.041 1.166,0.101 1.794,0.188 0.852,0.12 1.644,0.272 2.368,0.442 l 1.725,0.446 c 6.019,1.833 5.148,2.963 3.725,6.783 L 73.63,84.179 C 67.166,94.25 49.546,92.917 46.623,85.291 L -3.163,8.557 C -3.73,7.684 -4.197,6.747 -4.511,5.754 -4.724,5.082 -4.833,4.508 -5.026,3.508 -5.333,1.972 -2.861,0.444 0,0" /></g><g
         transform="translate(1499.0308,400.2888)"
         id="g140"><path
           id="path142"
           style="fill:#000000;fill-opacity:1;fill-rule:nonzero;stroke:none"
           d="m 0,0 -46.383,27.062 c 0,0 -2.974,2.288 -8.693,-1.372 -5.719,-3.66 -19.901,-10.751 -19.901,-10.751 0,0 -10.751,-9.608 -13.496,-14.869 -2.745,-5.261 -7.32,-14.64 -7.32,-14.64 l 44.835,24.934 c 0,0 5.261,0.934 9.378,-3.765 l 43.234,-24.6 c 0,0 0.452,15.765 0.057,16.413 C 1.354,-1.002 0,0 0,0" /></g><g
         transform="translate(1499.2743,400.2538)"
         id="g144"><path
           id="path146"
           style="fill:#000000;fill-opacity:1;fill-rule:nonzero;stroke:none"
           d="m 0,0 -46.383,27.062 c 0,0 -2.974,2.288 -8.693,-1.372 -5.719,-3.66 -19.901,-10.751 -19.901,-10.751 0,0 -10.751,-9.608 -13.496,-14.869 -2.745,-5.261 -7.32,-14.64 -7.32,-14.64 l 44.835,24.934 c 0,0 2.244,1.779 9.692,-3.397 l 42.92,-24.968 c 0,0 0.452,15.765 0.057,16.413 C 1.354,-1.002 0,0 0,0" /></g><g
         transform="translate(1499.5026,400.2538)"
         id="g148"><path
           id="path150"
           style="fill:#000000;fill-opacity:1;fill-rule:nonzero;stroke:none"
           d="m 0,0 -46.384,27.062 c 0,0 -2.973,2.288 -8.692,-1.372 -5.719,-3.66 -19.901,-10.751 -19.901,-10.751 0,0 -10.751,-9.608 -13.496,-14.869 -2.745,-5.261 -7.32,-14.64 -7.32,-14.64 l 44.835,24.934 c 0,0 2.244,1.779 9.692,-3.397 l 42.92,-24.968 c 0,0 0.452,15.765 0.057,16.413 C 1.354,-1.002 0,0 0,0" /></g><g
         transform="translate(1499.5026,400.1744)"
         id="g152"><path
           id="path154"
           style="fill:#000000;fill-opacity:1;fill-rule:nonzero;stroke:none"
           d="m 0,0 -46.384,27.062 c 0,0 -2.973,2.288 -8.692,-1.372 -5.719,-3.66 -19.901,-10.751 -19.901,-10.751 0,0 -10.751,-9.608 -13.496,-14.869 -2.745,-5.261 -7.32,-14.64 -7.32,-14.64 l 43.843,24.588 c 0,0 2.95,2.462 10.684,-3.051 l 42.92,-24.968 c 0,0 0.452,15.765 0.057,16.413 C 1.354,-1.002 0,0 0,0" /></g><g
         transform="translate(1499.9271,400.4106)"
         id="g156"><path
           id="path158"
           style="fill:#000000;fill-opacity:1;fill-rule:nonzero;stroke:none"
           d="m 0,0 -46.383,27.062 c 0,0 -2.974,2.288 -8.693,-1.372 -5.719,-3.66 -19.901,-10.751 -19.901,-10.751 0,0 -10.751,-9.608 -13.496,-14.869 -2.745,-5.261 -7.32,-14.64 -7.32,-14.64 l 43.843,24.588 c 0,0 2.95,2.462 10.684,-3.051 l 42.92,-24.968 c 0,0 0.452,15.765 0.057,16.413 C 1.354,-1.002 0,0 0,0" /></g><g
         transform="translate(1498.8307,399.9712)"
         id="g160"><path
           id="path162"
           style="fill:#000000;fill-opacity:1;fill-rule:nonzero;stroke:none"
           d="m 0,0 -46.383,27.062 c 0,0 -2.974,2.288 -8.693,-1.372 -5.719,-3.66 -19.901,-10.751 -19.901,-10.751 0,0 -10.751,-9.608 -13.496,-14.869 -2.745,-5.261 -7.32,-14.64 -7.32,-14.64 l 43.843,24.588 c 0,0 1.832,1.42 4.826,0.636 1.614,-0.423 3.149,-1.756 6.224,-3.359 L 2.02,-17.673 c 0,0 0.086,15.437 -0.309,16.085 C 1.354,-1.002 0,0 0,0" /></g><g
         transform="translate(1465.3715,397.5852)"
         id="g164"><path
           id="path166"
           style="fill:#000000;fill-opacity:1;fill-rule:nonzero;stroke:none"
           d="m 0,0 -47.866,-27.965 c 0,0 -3.174,-0.857 -3.345,-5.489 l -0.601,-50.268 c 0,0 -13.896,17.156 -14.496,30.538 v 27.021 c 0,0 -0.294,5.211 4.074,6.991 l 46.107,26.645 c 0,0 2.059,1.191 4.118,-0.611 z" /></g><g
         transform="translate(1433.8899,373.4808)"
         id="g168"><path
           id="path170"
           style="fill:#000000;fill-opacity:1;fill-rule:nonzero;stroke:none"
           d="m 0,0 v -55.071 c 0,0 -0.801,-4.289 4.06,-7.149 L 46.779,-86.238 H 24.362 c 0,0 -5.833,-1.544 -17.385,5.261 l -19.558,11.152 c 0,0 -2.745,0.972 -2.23,7.434 l -0.065,50.039 c 0,0 -0.45,3.946 4.011,6.061 z" /></g><g
         transform="translate(1438.6936,333.6786)"
         id="g172"><path
           id="path174"
           style="fill:#000000;fill-opacity:1;fill-rule:nonzero;stroke:none"
           d="m 0,0 v -13.21 c 0,0 -1.716,-4.118 4.975,-6.605 l 44.111,-25.757 c 0,0 2.329,-1.748 5.16,0.215 l 27.97,16.211 c 0.95,0.55 1.743,1.331 2.309,2.272 0.713,1.188 1.975,3.311 4.172,7.059 l 9.779,16.984 -42.311,-24.061 c -4.396,-2.852 -5.683,-2.038 -9.114,-0.215 z" /></g><g
         transform="translate(1525.8468,402.6034)"
         id="g176"><path
           id="path178"
           style="fill:#000000;fill-opacity:1;fill-rule:nonzero;stroke:none"
           d="m 0,0 0.417,-50.221 c 0.02,-2.524 -1.306,-4.867 -3.481,-6.149 l -47.926,-28.235 12.166,-7.315 c 1.351,-0.841 3.056,-0.867 4.433,-0.069 l 46.781,27.131 c 1.551,0.889 2.507,2.54 2.507,4.328 v 33.179 c 0,1.068 -0.282,2.118 -0.817,3.043 z" /></g><g
         transform="translate(1459.7098,428.1789)"
         id="g180"><path
           id="path182"
           style="fill:#000000;fill-opacity:1;fill-rule:nonzero;stroke:none"
           d="m 0,0 43.155,-24.05 c 1.917,-1.068 3.1,-3.095 3.086,-5.289 l -0.348,-56.583 12.527,6.859 c 1.742,0.953 2.822,2.784 2.814,4.77 l -0.231,53.912 c -0.008,1.904 -1.044,3.656 -2.708,4.581 L 31.11,-0.699 c -1.467,0.856 -2.348,0.772 -4.046,0.772 z" /></g><g
         transform="translate(1313.7837,197.8349)"
         id="g184"><path
           id="path186"
           style="fill:#000000;fill-opacity:1;fill-rule:nonzero;stroke:none"
           d="m 0,0 40.516,62.449 c 2.367,3.649 6.48,5.782 10.826,5.615 l 10.132,-0.39 C 64.542,67.556 66,64.222 63.778,61.111 L 12.738,-18.07 c -2.806,-4.307 -7.436,-6.175 -12.574,-6.041 -5.536,0.144 -10.857,2.328 -13.878,6.969 l -50.227,77.179 c -1.191,4.074 -1.948,6.407 3.394,7.514 l 4.364,0.638 c 6.464,0.945 12.888,-1.95 16.462,-7.418 z" /></g><g
         transform="translate(1389.3022,259.2793)"
         id="g188"><path
           id="path190"
           style="fill:#000000;fill-opacity:1;fill-rule:nonzero;stroke:none"
           d="M 0,0 -0.069,-80.186 C -0.072,-83.155 1.698,-85.074 5,-85.393 l 10.963,0.035 c 3.037,0.316 4.518,2.082 4.518,5.284 l 0.223,81.979 c 0,2.77 -2.119,4.169 -4.889,4.169 L 5.741,6.222 C 1.825,6.222 0,3.916 0,0" /></g><g
         transform="translate(1427.1169,259.8887)"
         id="g192"><path
           id="path194"
           style="fill:#000000;fill-opacity:1;fill-rule:nonzero;stroke:none"
           d="m 0,0 v -8.535 c 0,-2.741 2.222,-4.963 4.963,-4.963 l 84.963,0.296 c 4.32,0.055 6.881,-2.199 6.815,-6.518 l 0.305,-40.442 c 0.076,-3.414 -2.672,-6.222 -6.087,-6.219 L 5.652,-66.3 C 2.517,-66.348 0,-68.904 0,-72.04 v -8.747 c 0,-2.881 2.335,-5.216 5.215,-5.216 h 91.348 c 11.635,0 21.067,9.432 21.067,21.067 v 49.804 c 0,11.823 -9.621,21.387 -21.443,21.316 L 5.613,5.646 C 2.508,5.628 0,3.105 0,0" /></g><g
         transform="translate(1560.9781,174.5108)"
         id="g196"><path
           id="path198"
           style="fill:#000000;fill-opacity:1;fill-rule:nonzero;stroke:none"
           d="m 0,0 7.74,-0.708 c 0.919,-0.084 1.849,-0.107 2.761,0.034 3.354,0.52 6.444,2.543 8.307,5.407 L 59.768,67.731 99.735,5.85 c 0.872,-1.204 2.734,-3.433 5.893,-5.019 2.682,-1.346 5.138,-1.646 6.567,-1.711 0.463,-0.006 0.926,-0.013 1.39,-0.02 0.567,0.04 1.166,0.101 1.794,0.188 0.852,0.12 1.644,0.272 2.368,0.442 l 1.725,0.446 c 6.019,1.833 5.148,2.963 3.725,6.783 L 73.63,84.179 C 67.166,94.25 49.546,92.917 46.623,85.291 L -3.163,8.557 C -3.73,7.684 -4.197,6.746 -4.511,5.754 -4.725,5.082 -4.833,4.508 -5.026,3.508 -5.333,1.972 -2.861,0.444 0,0" /></g><g
         transform="translate(1011.0308,648.2888)"
         id="g200"><path
           id="path202"
           style="fill:#ffffff;fill-opacity:1;fill-rule:nonzero;stroke:none"
           d="m 0,0 -46.383,27.062 c 0,0 -2.974,2.288 -8.693,-1.372 -5.719,-3.66 -19.901,-10.751 -19.901,-10.751 0,0 -10.751,-9.608 -13.496,-14.869 -2.745,-5.261 -7.32,-14.64 -7.32,-14.64 l 44.835,24.934 c 0,0 5.261,0.934 9.378,-3.765 l 43.234,-24.6 c 0,0 0.452,15.765 0.057,16.413 C 1.353,-1.002 0,0 0,0" /></g><g
         transform="translate(1011.2743,648.2538)"
         id="g204"><path
           id="path206"
           style="fill:#ffffff;fill-opacity:1;fill-rule:nonzero;stroke:none"
           d="m 0,0 -46.383,27.062 c 0,0 -2.974,2.288 -8.693,-1.372 -5.719,-3.66 -19.901,-10.751 -19.901,-10.751 0,0 -10.751,-9.608 -13.496,-14.869 -2.745,-5.261 -7.32,-14.64 -7.32,-14.64 l 44.835,24.934 c 0,0 2.244,1.779 9.692,-3.397 l 42.92,-24.968 c 0,0 0.452,15.765 0.057,16.412 C 1.354,-1.002 0,0 0,0" /></g><g
         transform="translate(1011.5026,648.2538)"
         id="g208"><path
           id="path210"
           style="fill:#ffffff;fill-opacity:1;fill-rule:nonzero;stroke:none"
           d="m 0,0 -46.383,27.062 c 0,0 -2.974,2.288 -8.693,-1.372 -5.719,-3.66 -19.901,-10.751 -19.901,-10.751 0,0 -10.751,-9.608 -13.496,-14.869 -2.745,-5.261 -7.32,-14.64 -7.32,-14.64 l 44.835,24.934 c 0,0 2.244,1.779 9.692,-3.397 l 42.92,-24.968 c 0,0 0.452,15.765 0.057,16.412 C 1.353,-1.002 0,0 0,0" /></g><g
         transform="translate(1011.5026,648.1744)"
         id="g212"><path
           id="path214"
           style="fill:#ffffff;fill-opacity:1;fill-rule:nonzero;stroke:none"
           d="m 0,0 -46.383,27.062 c 0,0 -2.974,2.288 -8.693,-1.372 -5.719,-3.66 -19.901,-10.751 -19.901,-10.751 0,0 -10.751,-9.608 -13.496,-14.869 -2.745,-5.261 -7.32,-14.64 -7.32,-14.64 l 43.843,24.588 c 0,0 2.95,2.462 10.684,-3.051 l 42.92,-24.968 c 0,0 0.452,15.765 0.057,16.413 C 1.353,-1.002 0,0 0,0" /></g><g
         transform="translate(1011.9271,648.4106)"
         id="g216"><path
           id="path218"
           style="fill:#ffffff;fill-opacity:1;fill-rule:nonzero;stroke:none"
           d="m 0,0 -46.383,27.062 c 0,0 -2.974,2.288 -8.693,-1.372 -5.719,-3.66 -19.901,-10.751 -19.901,-10.751 0,0 -10.751,-9.608 -13.496,-14.869 -2.745,-5.261 -7.32,-14.64 -7.32,-14.64 l 43.843,24.588 c 0,0 2.95,2.462 10.684,-3.051 l 42.92,-24.968 c 0,0 0.452,15.765 0.057,16.412 C 1.354,-1.002 0,0 0,0" /></g><g
         transform="translate(1010.8307,647.9713)"
         id="g220"><path
           id="path222"
           style="fill:#ffffff;fill-opacity:1;fill-rule:nonzero;stroke:none"
           d="m 0,0 -46.383,27.062 c 0,0 -2.974,2.288 -8.693,-1.372 -5.719,-3.66 -19.901,-10.751 -19.901,-10.751 0,0 -10.751,-9.608 -13.496,-14.869 -2.745,-5.261 -7.32,-14.64 -7.32,-14.64 l 43.843,24.588 c 0,0 1.832,1.42 4.826,0.636 1.614,-0.423 3.149,-1.756 6.224,-3.359 L 2.02,-17.673 c 0,0 0.086,15.437 -0.309,16.084 C 1.353,-1.002 0,0 0,0" /></g><g
         transform="translate(977.3714,645.5852)"
         id="g224"><path
           id="path226"
           style="fill:#ffffff;fill-opacity:1;fill-rule:nonzero;stroke:none"
           d="m 0,0 -47.866,-27.964 c 0,0 -3.173,-0.858 -3.345,-5.49 l -0.601,-50.268 c 0,0 -13.896,17.156 -14.496,30.538 v 27.021 c 0,0 -0.294,5.211 4.074,6.991 l 46.107,26.645 c 0,0 2.059,1.191 4.118,-0.611 z" /></g><g
         transform="translate(945.8899,621.4808)"
         id="g228"><path
           id="path230"
           style="fill:#ffffff;fill-opacity:1;fill-rule:nonzero;stroke:none"
           d="m 0,0 v -55.071 c 0,0 -0.801,-4.289 4.06,-7.149 L 46.779,-86.238 H 24.362 c 0,0 -5.833,-1.544 -17.385,5.261 l -19.558,11.152 c 0,0 -2.745,0.972 -2.23,7.434 l -0.065,50.039 c 0,0 -0.45,3.946 4.01,6.061 z" /></g><g
         transform="translate(950.6936,581.6786)"
         id="g232"><path
           id="path234"
           style="fill:#ffffff;fill-opacity:1;fill-rule:nonzero;stroke:none"
           d="m 0,0 v -13.21 c 0,0 -1.716,-4.118 4.975,-6.605 l 44.111,-25.757 c 0,0 2.329,-1.748 5.16,0.215 l 27.97,16.211 c 0.95,0.55 1.743,1.331 2.309,2.272 0.713,1.188 1.975,3.311 4.172,7.059 l 9.779,16.984 -42.311,-24.061 c -4.396,-2.852 -5.683,-2.038 -9.114,-0.215 z" /></g><g
         transform="translate(1037.8468,650.6034)"
         id="g236"><path
           id="path238"
           style="fill:#ffffff;fill-opacity:1;fill-rule:nonzero;stroke:none"
           d="m 0,0 0.417,-50.221 c 0.02,-2.524 -1.306,-4.867 -3.481,-6.149 l -47.926,-28.235 12.166,-7.315 c 1.351,-0.841 3.056,-0.868 4.433,-0.069 l 46.781,27.131 c 1.551,0.889 2.507,2.54 2.507,4.328 v 33.179 c 0,1.068 -0.282,2.118 -0.817,3.043 z" /></g><g
         transform="translate(971.7099,676.1789)"
         id="g240"><path
           id="path242"
           style="fill:#ffffff;fill-opacity:1;fill-rule:nonzero;stroke:none"
           d="m 0,0 43.155,-24.05 c 1.917,-1.068 3.099,-3.095 3.086,-5.289 l -0.348,-56.583 12.527,6.859 c 1.742,0.953 2.822,2.784 2.814,4.77 l -0.231,53.912 c -0.008,1.904 -1.044,3.656 -2.709,4.581 L 31.11,-0.699 c -1.467,0.856 -2.348,0.772 -4.046,0.772 z" /></g><g
         transform="translate(825.7837,445.8349)"
         id="g244"><path
           id="path246"
           style="fill:#ffffff;fill-opacity:1;fill-rule:nonzero;stroke:none"
           d="m 0,0 40.516,62.449 c 2.367,3.649 6.48,5.782 10.826,5.615 l 10.132,-0.39 C 64.542,67.556 66,64.222 63.778,61.111 L 12.738,-18.07 c -2.806,-4.307 -7.436,-6.175 -12.574,-6.041 -5.536,0.144 -10.857,2.328 -13.878,6.969 l -50.227,77.179 c -1.191,4.074 -1.948,6.407 3.394,7.514 l 4.364,0.638 c 6.464,0.945 12.888,-1.95 16.462,-7.418 z" /></g><g
         transform="translate(901.3022,507.2793)"
         id="g248"><path
           id="path250"
           style="fill:#ffffff;fill-opacity:1;fill-rule:nonzero;stroke:none"
           d="M 0,0 -0.069,-80.186 C -0.072,-83.155 1.698,-85.074 5,-85.393 l 10.963,0.035 c 3.037,0.316 4.519,2.082 4.519,5.284 l 0.222,81.979 c 0,2.77 -2.119,4.169 -4.889,4.169 L 5.741,6.222 C 1.825,6.222 0,3.916 0,0" /></g><g
         transform="translate(939.117,507.8887)"
         id="g252"><path
           id="path254"
           style="fill:#ffffff;fill-opacity:1;fill-rule:nonzero;stroke:none"
           d="m 0,0 v -8.535 c 0,-2.741 2.222,-4.963 4.963,-4.963 l 84.963,0.296 c 4.32,0.055 6.881,-2.199 6.815,-6.518 l 0.305,-40.442 c 0.076,-3.414 -2.672,-6.222 -6.087,-6.219 L 5.652,-66.3 C 2.517,-66.348 0,-68.904 0,-72.04 v -8.747 c 0,-2.881 2.335,-5.216 5.215,-5.216 h 91.348 c 11.635,0 21.067,9.432 21.067,21.067 v 49.804 c 0,11.823 -9.621,21.387 -21.443,21.316 L 5.613,5.646 C 2.508,5.628 0,3.105 0,0" /></g><g
         transform="translate(1072.9781,422.5108)"
         id="g256"><path
           id="path258"
           style="fill:#ffffff;fill-opacity:1;fill-rule:nonzero;stroke:none"
           d="m 0,0 7.74,-0.708 c 0.919,-0.084 1.849,-0.107 2.761,0.034 3.354,0.52 6.444,2.543 8.307,5.407 L 59.768,67.731 99.735,5.85 c 0.872,-1.204 2.734,-3.433 5.893,-5.019 2.682,-1.346 5.138,-1.646 6.567,-1.711 0.463,-0.006 0.926,-0.013 1.39,-0.02 0.567,0.041 1.166,0.101 1.794,0.188 0.852,0.12 1.644,0.272 2.368,0.442 l 1.725,0.446 c 6.019,1.833 5.148,2.963 3.725,6.783 L 73.63,84.179 C 67.166,94.25 49.546,92.917 46.623,85.291 L -3.163,8.557 C -3.73,7.684 -4.197,6.747 -4.511,5.754 -4.725,5.082 -4.833,4.508 -5.026,3.508 -5.333,1.972 -2.861,0.444 0,0" /></g><g
         transform="translate(1236.0308,982.2888)"
         id="g260"><path
           id="path262"
           style="fill:#0033ba;fill-opacity:1;fill-rule:nonzero;stroke:none"
           d="m 0,0 -46.383,27.062 c 0,0 -2.974,2.288 -8.693,-1.372 -5.719,-3.66 -19.901,-10.751 -19.901,-10.751 0,0 -10.751,-9.608 -13.496,-14.869 -2.745,-5.261 -7.32,-14.64 -7.32,-14.64 l 44.835,24.934 c 0,0 5.261,0.934 9.378,-3.765 l 43.234,-24.6 c 0,0 0.452,15.765 0.057,16.413 C 1.354,-1.002 0,0 0,0" /></g><g
         transform="translate(1236.2743,982.2538)"
         id="g264"><path
           id="path266"
           style="fill:#0033ba;fill-opacity:1;fill-rule:nonzero;stroke:none"
           d="m 0,0 -46.383,27.062 c 0,0 -2.974,2.288 -8.693,-1.372 -5.719,-3.66 -19.901,-10.751 -19.901,-10.751 0,0 -10.751,-9.608 -13.496,-14.869 -2.745,-5.261 -7.32,-14.64 -7.32,-14.64 l 44.835,24.934 c 0,0 2.244,1.779 9.692,-3.397 l 42.92,-24.968 c 0,0 0.452,15.765 0.057,16.412 C 1.354,-1.002 0,0 0,0" /></g><g
         transform="translate(1236.5026,982.2538)"
         id="g268"><path
           id="path270"
           style="fill:#0033ba;fill-opacity:1;fill-rule:nonzero;stroke:none"
           d="m 0,0 -46.384,27.062 c 0,0 -2.973,2.288 -8.692,-1.372 -5.719,-3.66 -19.901,-10.751 -19.901,-10.751 0,0 -10.751,-9.608 -13.496,-14.869 -2.745,-5.261 -7.32,-14.64 -7.32,-14.64 l 44.835,24.934 c 0,0 2.244,1.779 9.692,-3.397 l 42.92,-24.968 c 0,0 0.452,15.765 0.057,16.412 C 1.354,-1.002 0,0 0,0" /></g><g
         transform="translate(1236.5026,982.1744)"
         id="g272"><path
           id="path274"
           style="fill:#0033ba;fill-opacity:1;fill-rule:nonzero;stroke:none"
           d="m 0,0 -46.384,27.062 c 0,0 -2.973,2.288 -8.692,-1.372 -5.719,-3.66 -19.901,-10.751 -19.901,-10.751 0,0 -10.751,-9.608 -13.496,-14.869 -2.745,-5.261 -7.32,-14.64 -7.32,-14.64 l 43.843,24.588 c 0,0 2.95,2.462 10.684,-3.051 l 42.92,-24.968 c 0,0 0.452,15.765 0.057,16.413 C 1.354,-1.002 0,0 0,0" /></g><g
         transform="translate(1236.9271,982.4106)"
         id="g276"><path
           id="path278"
           style="fill:#0033ba;fill-opacity:1;fill-rule:nonzero;stroke:none"
           d="m 0,0 -46.383,27.062 c 0,0 -2.974,2.288 -8.693,-1.372 -5.719,-3.66 -19.901,-10.751 -19.901,-10.751 0,0 -10.751,-9.608 -13.496,-14.869 -2.745,-5.261 -7.32,-14.64 -7.32,-14.64 l 43.843,24.588 c 0,0 2.95,2.462 10.684,-3.051 l 42.92,-24.968 c 0,0 0.452,15.765 0.057,16.412 C 1.354,-1.002 0,0 0,0" /></g><g
         transform="translate(1235.8307,981.9713)"
         id="g280"><path
           id="path282"
           style="fill:#0033ba;fill-opacity:1;fill-rule:nonzero;stroke:none"
           d="m 0,0 -46.383,27.062 c 0,0 -2.974,2.288 -8.693,-1.372 -5.719,-3.66 -19.901,-10.751 -19.901,-10.751 0,0 -10.751,-9.608 -13.496,-14.869 -2.745,-5.261 -7.32,-14.64 -7.32,-14.64 l 43.843,24.588 c 0,0 1.832,1.42 4.826,0.636 1.614,-0.423 3.149,-1.756 6.224,-3.359 L 2.02,-17.673 c 0,0 0.086,15.437 -0.309,16.084 C 1.354,-1.002 0,0 0,0" /></g><g
         transform="translate(1202.3715,979.5852)"
         id="g284"><path
           id="path286"
           style="fill:#0033ba;fill-opacity:1;fill-rule:nonzero;stroke:none"
           d="m 0,0 -47.866,-27.964 c 0,0 -3.174,-0.858 -3.345,-5.49 l -0.601,-50.268 c 0,0 -13.896,17.156 -14.496,30.538 v 27.021 c 0,0 -0.294,5.211 4.074,6.991 l 46.107,26.645 c 0,0 2.059,1.191 4.118,-0.611 z" /></g><g
         transform="translate(1170.8899,955.4808)"
         id="g288"><path
           id="path290"
           style="fill:#0033ba;fill-opacity:1;fill-rule:nonzero;stroke:none"
           d="m 0,0 v -55.071 c 0,0 -0.801,-4.289 4.06,-7.149 L 46.779,-86.238 H 24.362 c 0,0 -5.833,-1.544 -17.385,5.261 l -19.558,11.152 c 0,0 -2.745,0.972 -2.23,7.434 l -0.065,50.039 c 0,0 -0.45,3.946 4.011,6.061 z" /></g><g
         transform="translate(1175.6936,915.6786)"
         id="g292"><path
           id="path294"
           style="fill:#0033ba;fill-opacity:1;fill-rule:nonzero;stroke:none"
           d="m 0,0 v -13.21 c 0,0 -1.716,-4.118 4.975,-6.605 l 44.111,-25.757 c 0,0 2.329,-1.748 5.16,0.215 l 27.97,16.211 c 0.95,0.55 1.743,1.331 2.309,2.272 0.713,1.188 1.975,3.311 4.172,7.059 l 9.779,16.984 -42.311,-24.061 c -4.396,-2.852 -5.683,-2.038 -9.114,-0.215 z" /></g><g
         transform="translate(1262.8468,984.6034)"
         id="g296"><path
           id="path298"
           style="fill:#0033ba;fill-opacity:1;fill-rule:nonzero;stroke:none"
           d="m 0,0 0.417,-50.221 c 0.02,-2.524 -1.306,-4.867 -3.481,-6.149 l -47.926,-28.235 12.166,-7.315 c 1.351,-0.841 3.056,-0.868 4.433,-0.069 l 46.781,27.131 c 1.551,0.889 2.507,2.54 2.507,4.328 v 33.179 c 0,1.068 -0.282,2.118 -0.817,3.043 z" /></g><g
         transform="translate(1196.7098,1010.1789)"
         id="g300"><path
           id="path302"
           style="fill:#0033ba;fill-opacity:1;fill-rule:nonzero;stroke:none"
           d="m 0,0 43.155,-24.05 c 1.917,-1.068 3.1,-3.095 3.086,-5.289 l -0.348,-56.583 12.527,6.859 c 1.742,0.953 2.822,2.784 2.814,4.77 l -0.231,53.912 c -0.008,1.904 -1.044,3.656 -2.708,4.581 L 31.11,-0.699 c -1.467,0.856 -2.348,0.772 -4.046,0.772 z" /></g><g
         transform="translate(1050.7837,779.8349)"
         id="g304"><path
           id="path306"
           style="fill:#0033ba;fill-opacity:1;fill-rule:nonzero;stroke:none"
           d="m 0,0 40.516,62.449 c 2.367,3.649 6.48,5.782 10.826,5.615 l 10.132,-0.39 C 64.542,67.556 66,64.222 63.778,61.111 L 12.738,-18.07 c -2.806,-4.307 -7.436,-6.175 -12.574,-6.041 -5.536,0.144 -10.857,2.328 -13.878,6.969 l -50.227,77.179 c -1.191,4.074 -1.948,6.407 3.394,7.514 l 4.364,0.638 c 6.464,0.945 12.888,-1.95 16.462,-7.418 z" /></g><g
         transform="translate(1126.3022,841.2794)"
         id="g308"><path
           id="path310"
           style="fill:#0033ba;fill-opacity:1;fill-rule:nonzero;stroke:none"
           d="M 0,0 -0.069,-80.186 C -0.072,-83.155 1.698,-85.074 5,-85.393 l 10.963,0.035 c 3.037,0.316 4.518,2.082 4.518,5.284 l 0.223,81.979 c 0,2.77 -2.119,4.169 -4.889,4.169 L 5.741,6.222 C 1.825,6.222 0,3.916 0,0" /></g><g
         transform="translate(1164.1169,841.8887)"
         id="g312"><path
           id="path314"
           style="fill:#0033ba;fill-opacity:1;fill-rule:nonzero;stroke:none"
           d="m 0,0 v -8.535 c 0,-2.741 2.222,-4.963 4.963,-4.963 l 84.963,0.296 c 4.32,0.055 6.881,-2.199 6.815,-6.518 l 0.305,-40.442 c 0.076,-3.414 -2.672,-6.222 -6.087,-6.219 L 5.652,-66.3 C 2.517,-66.348 0,-68.904 0,-72.04 v -8.747 c 0,-2.881 2.335,-5.216 5.215,-5.216 h 91.348 c 11.635,0 21.067,9.432 21.067,21.067 v 49.804 c 0,11.823 -9.621,21.387 -21.443,21.316 L 5.613,5.646 C 2.508,5.628 0,3.105 0,0" /></g><g
         transform="translate(1297.9781,756.5108)"
         id="g316"><path
           id="path318"
           style="fill:#0033ba;fill-opacity:1;fill-rule:nonzero;stroke:none"
           d="m 0,0 7.74,-0.708 c 0.919,-0.084 1.849,-0.107 2.761,0.034 3.354,0.52 6.444,2.543 8.307,5.407 L 59.768,67.731 99.735,5.85 c 0.872,-1.204 2.734,-3.433 5.893,-5.019 2.682,-1.346 5.138,-1.646 6.567,-1.711 0.463,-0.006 0.926,-0.013 1.39,-0.02 0.567,0.041 1.166,0.101 1.794,0.188 0.852,0.12 1.644,0.272 2.368,0.442 l 1.725,0.446 c 6.019,1.833 5.148,2.963 3.725,6.783 L 73.63,84.179 C 67.166,94.25 49.546,92.917 46.623,85.291 L -3.163,8.557 C -3.73,7.684 -4.197,6.747 -4.511,5.754 -4.725,5.082 -4.833,4.508 -5.026,3.508 -5.333,1.972 -2.861,0.444 0,0" /></g><g
         transform="translate(1696.0308,982.2888)"
         id="g320"
         inkscape:export-filename="logo\azul_escurosvg.svg"
         inkscape:export-xdpi="300"
         inkscape:export-ydpi="300"><path
           id="path322"
           style="fill:#01013c;fill-opacity:1;fill-rule:nonzero;stroke:none"
           d="m 0,0 -46.383,27.062 c 0,0 -2.974,2.288 -8.693,-1.372 -5.719,-3.66 -19.901,-10.751 -19.901,-10.751 0,0 -10.751,-9.608 -13.496,-14.869 -2.745,-5.261 -7.32,-14.64 -7.32,-14.64 l 44.835,24.934 c 0,0 5.261,0.934 9.378,-3.765 l 43.234,-24.6 c 0,0 0.452,15.765 0.057,16.413 C 1.354,-1.002 0,0 0,0" /></g><g
         transform="translate(1696.2743,982.2538)"
         id="g324"><path
           id="path326"
           style="fill:#01013c;fill-opacity:1;fill-rule:nonzero;stroke:none"
           d="m 0,0 -46.383,27.062 c 0,0 -2.974,2.288 -8.693,-1.372 -5.719,-3.66 -19.901,-10.751 -19.901,-10.751 0,0 -10.751,-9.608 -13.496,-14.869 -2.745,-5.261 -7.32,-14.64 -7.32,-14.64 l 44.835,24.934 c 0,0 2.244,1.779 9.692,-3.397 l 42.92,-24.968 c 0,0 0.452,15.765 0.057,16.412 C 1.354,-1.002 0,0 0,0" /></g><g
         transform="translate(1696.5026,982.2538)"
         id="g328"><path
           id="path330"
           style="fill:#01013c;fill-opacity:1;fill-rule:nonzero;stroke:none"
           d="m 0,0 -46.384,27.062 c 0,0 -2.973,2.288 -8.692,-1.372 -5.719,-3.66 -19.901,-10.751 -19.901,-10.751 0,0 -10.751,-9.608 -13.496,-14.869 -2.745,-5.261 -7.32,-14.64 -7.32,-14.64 l 44.835,24.934 c 0,0 2.244,1.779 9.692,-3.397 l 42.92,-24.968 c 0,0 0.452,15.765 0.057,16.412 C 1.354,-1.002 0,0 0,0" /></g><g
         transform="translate(1696.5026,982.1744)"
         id="g332"><path
           id="path334"
           style="fill:#01013c;fill-opacity:1;fill-rule:nonzero;stroke:none"
           d="m 0,0 -46.384,27.062 c 0,0 -2.973,2.288 -8.692,-1.372 -5.719,-3.66 -19.901,-10.751 -19.901,-10.751 0,0 -10.751,-9.608 -13.496,-14.869 -2.745,-5.261 -7.32,-14.64 -7.32,-14.64 l 43.843,24.588 c 0,0 2.95,2.462 10.684,-3.051 l 42.92,-24.968 c 0,0 0.452,15.765 0.057,16.413 C 1.354,-1.002 0,0 0,0" /></g><g
         transform="translate(1696.9271,982.4106)"
         id="g336"><path
           id="path338"
           style="fill:#01013c;fill-opacity:1;fill-rule:nonzero;stroke:none"
           d="m 0,0 -46.383,27.062 c 0,0 -2.974,2.288 -8.693,-1.372 -5.719,-3.66 -19.901,-10.751 -19.901,-10.751 0,0 -10.751,-9.608 -13.496,-14.869 -2.745,-5.261 -7.32,-14.64 -7.32,-14.64 l 43.843,24.588 c 0,0 2.95,2.462 10.684,-3.051 l 42.92,-24.968 c 0,0 0.452,15.765 0.057,16.412 C 1.354,-1.002 0,0 0,0" /></g><g
         transform="translate(1695.8307,981.9713)"
         id="g340"><path
           id="path342"
           style="fill:#01013c;fill-opacity:1;fill-rule:nonzero;stroke:none"
           d="m 0,0 -46.383,27.062 c 0,0 -2.974,2.288 -8.693,-1.372 -5.719,-3.66 -19.901,-10.751 -19.901,-10.751 0,0 -10.751,-9.608 -13.496,-14.869 -2.745,-5.261 -7.32,-14.64 -7.32,-14.64 l 43.843,24.588 c 0,0 1.832,1.42 4.826,0.636 1.614,-0.423 3.149,-1.756 6.224,-3.359 L 2.02,-17.673 c 0,0 0.086,15.437 -0.309,16.084 C 1.354,-1.002 0,0 0,0" /></g><g
         transform="translate(1662.3715,979.5852)"
         id="g344"><path
           id="path346"
           style="fill:#01013c;fill-opacity:1;fill-rule:nonzero;stroke:none"
           d="m 0,0 -47.866,-27.964 c 0,0 -3.174,-0.858 -3.345,-5.49 l -0.601,-50.268 c 0,0 -13.896,17.156 -14.496,30.538 v 27.021 c 0,0 -0.294,5.211 4.074,6.991 l 46.107,26.645 c 0,0 2.059,1.191 4.118,-0.611 z" /></g><g
         transform="translate(1630.8899,955.4808)"
         id="g348"><path
           id="path350"
           style="fill:#01013c;fill-opacity:1;fill-rule:nonzero;stroke:none"
           d="m 0,0 v -55.071 c 0,0 -0.801,-4.289 4.06,-7.149 L 46.779,-86.238 H 24.362 c 0,0 -5.833,-1.544 -17.385,5.261 l -19.558,11.152 c 0,0 -2.745,0.972 -2.23,7.434 l -0.065,50.039 c 0,0 -0.45,3.946 4.011,6.061 z" /></g><g
         transform="translate(1635.6936,915.6786)"
         id="g352"><path
           id="path354"
           style="fill:#01013c;fill-opacity:1;fill-rule:nonzero;stroke:none"
           d="m 0,0 v -13.21 c 0,0 -1.716,-4.118 4.975,-6.605 l 44.111,-25.757 c 0,0 2.329,-1.748 5.16,0.215 l 27.97,16.211 c 0.95,0.55 1.743,1.331 2.309,2.272 0.713,1.188 1.975,3.311 4.172,7.059 l 9.779,16.984 -42.311,-24.061 c -4.396,-2.852 -5.683,-2.038 -9.114,-0.215 z" /></g><g
         transform="translate(1722.8468,984.6034)"
         id="g356"><path
           id="path358"
           style="fill:#01013c;fill-opacity:1;fill-rule:nonzero;stroke:none"
           d="m 0,0 0.417,-50.221 c 0.02,-2.524 -1.306,-4.867 -3.481,-6.149 l -47.926,-28.235 12.166,-7.315 c 1.351,-0.841 3.056,-0.868 4.433,-0.069 l 46.781,27.131 c 1.551,0.889 2.507,2.54 2.507,4.328 v 33.179 c 0,1.068 -0.282,2.118 -0.817,3.043 z" /></g><g
         transform="translate(1656.7098,1010.1789)"
         id="g360"><path
           id="path362"
           style="fill:#01013c;fill-opacity:1;fill-rule:nonzero;stroke:none"
           d="m 0,0 43.155,-24.05 c 1.917,-1.068 3.1,-3.095 3.086,-5.289 l -0.348,-56.583 12.527,6.859 c 1.742,0.953 2.822,2.784 2.814,4.77 l -0.231,53.912 c -0.008,1.904 -1.044,3.656 -2.708,4.581 L 31.11,-0.699 c -1.467,0.856 -2.348,0.772 -4.046,0.772 z" /></g><g
         transform="translate(1510.7837,779.8349)"
         id="g364"><path
           id="path366"
           style="fill:#01013c;fill-opacity:1;fill-rule:nonzero;stroke:none"
           d="m 0,0 40.516,62.449 c 2.367,3.649 6.48,5.782 10.826,5.615 l 10.132,-0.39 C 64.542,67.556 66,64.222 63.778,61.111 L 12.738,-18.07 c -2.806,-4.307 -7.436,-6.175 -12.574,-6.041 -5.536,0.144 -10.857,2.328 -13.878,6.969 l -50.227,77.179 c -1.191,4.074 -1.948,6.407 3.394,7.514 l 4.364,0.638 c 6.464,0.945 12.888,-1.95 16.462,-7.418 z" /></g><g
         transform="translate(1586.3022,841.2794)"
         id="g368"><path
           id="path370"
           style="fill:#01013c;fill-opacity:1;fill-rule:nonzero;stroke:none"
           d="M 0,0 -0.069,-80.186 C -0.072,-83.155 1.698,-85.074 5,-85.393 l 10.963,0.035 c 3.037,0.316 4.518,2.082 4.518,5.284 l 0.223,81.979 c 0,2.77 -2.119,4.169 -4.889,4.169 L 5.741,6.222 C 1.825,6.222 0,3.916 0,0" /></g><g
         transform="translate(1624.1169,841.8887)"
         id="g372"><path
           id="path374"
           style="fill:#01013c;fill-opacity:1;fill-rule:nonzero;stroke:none"
           d="m 0,0 v -8.535 c 0,-2.741 2.222,-4.963 4.963,-4.963 l 84.963,0.296 c 4.32,0.055 6.881,-2.199 6.815,-6.518 l 0.305,-40.442 c 0.076,-3.414 -2.672,-6.222 -6.087,-6.219 L 5.652,-66.3 C 2.517,-66.348 0,-68.904 0,-72.04 v -8.747 c 0,-2.881 2.335,-5.216 5.215,-5.216 h 91.348 c 11.635,0 21.067,9.432 21.067,21.067 v 49.804 c 0,11.823 -9.621,21.387 -21.443,21.316 L 5.613,5.646 C 2.508,5.628 0,3.105 0,0" /></g><g
         transform="translate(1757.9781,756.5108)"
         id="g376"><path
           id="path378"
           style="fill:#01013c;fill-opacity:1;fill-rule:nonzero;stroke:none"
           d="m 0,0 7.74,-0.708 c 0.919,-0.084 1.849,-0.107 2.761,0.034 3.354,0.52 6.444,2.543 8.307,5.407 L 59.768,67.731 99.735,5.85 c 0.872,-1.204 2.734,-3.433 5.893,-5.019 2.682,-1.346 5.138,-1.646 6.567,-1.711 0.463,-0.006 0.926,-0.013 1.39,-0.02 0.567,0.041 1.166,0.101 1.794,0.188 0.852,0.12 1.644,0.272 2.368,0.442 l 1.725,0.446 c 6.019,1.833 5.148,2.963 3.725,6.783 L 73.63,84.179 C 67.166,94.25 49.546,92.917 46.623,85.291 L -3.163,8.557 C -3.73,7.684 -4.197,6.747 -4.511,5.754 -4.725,5.082 -4.833,4.508 -5.026,3.508 -5.333,1.972 -2.861,0.444 0,0" /></g></g><g
       id="g380"
       inkscape:export-filename="logo\azul.svg"
       inkscape:export-xdpi="300"
       inkscape:export-ydpi="300"><g
         id="g382"><g
           id="g388"><g
             id="g390"><path
               id="path406"
               style="fill:url(#linearGradient404);stroke:none"
               d="m 225.955,674.978 c -5.719,-3.659 -19.901,-10.751 -19.901,-10.751 v 0 c 0,0 -10.751,-9.607 -13.496,-14.868 v 0 c -2.745,-5.261 -7.32,-14.64 -7.32,-14.64 v 0 l 44.834,24.933 c 0,0 5.262,0.935 9.379,-3.764 v 0 l 43.234,-24.6 c 0,0 0.451,15.765 0.056,16.412 v 0 c -0.357,0.586 -1.711,1.589 -1.711,1.589 v 0 l -46.383,27.062 c 0,0 -0.918,0.706 -2.714,0.706 v 0 c -1.437,0 -3.436,-0.452 -5.978,-2.079" /></g></g></g></g><g
       id="g408"><g
         id="g410"><g
           id="g416"><g
             id="g418"><path
               id="path426"
               style="fill:url(#linearGradient424);stroke:none"
               d="m 225.955,674.978 c -5.719,-3.659 -19.901,-10.751 -19.901,-10.751 v 0 c 0,0 -10.751,-9.607 -13.496,-14.868 v 0 c -2.745,-5.261 -7.32,-14.64 -7.32,-14.64 v 0 l 44.834,24.933 c 0,0 5.262,0.935 9.379,-3.764 v 0 l 43.234,-24.6 c 0,0 0.451,15.765 0.056,16.412 v 0 c -0.357,0.586 -1.711,1.589 -1.711,1.589 v 0 l -46.383,27.062 c 0,0 -0.918,0.706 -2.714,0.706 v 0 c -1.437,0 -3.436,-0.452 -5.978,-2.079" /></g></g></g></g><g
       id="g428"><g
         id="g430"><g
           id="g436"><g
             id="g438"><path
               id="path454"
               style="fill:url(#linearGradient452);stroke:none"
               d="m 226.199,674.943 c -5.72,-3.659 -19.902,-10.75 -19.902,-10.75 v 0 c 0,0 -10.751,-9.608 -13.496,-14.869 v 0 c -2.745,-5.262 -7.32,-14.64 -7.32,-14.64 v 0 l 44.835,24.933 c 0,0 2.244,1.779 9.692,-3.396 v 0 l 42.92,-24.968 c 0,0 0.452,15.765 0.057,16.412 v 0 c -0.357,0.586 -1.711,1.589 -1.711,1.589 v 0 l -46.383,27.062 c 0,0 -0.918,0.706 -2.714,0.706 v 0 c -1.437,0 -3.437,-0.452 -5.978,-2.079" /></g></g></g></g><g
       id="g456"><g
         id="g458"><g
           id="g464"><g
             id="g466"><path
               id="path474"
               style="fill:url(#linearGradient472);stroke:none"
               d="m 226.199,674.943 c -5.72,-3.659 -19.902,-10.75 -19.902,-10.75 v 0 c 0,0 -10.751,-9.608 -13.496,-14.869 v 0 c -2.745,-5.262 -7.32,-14.64 -7.32,-14.64 v 0 l 44.835,24.933 c 0,0 2.244,1.779 9.692,-3.396 v 0 l 42.92,-24.968 c 0,0 0.452,15.765 0.057,16.412 v 0 c -0.357,0.586 -1.711,1.589 -1.711,1.589 v 0 l -46.383,27.062 c 0,0 -0.918,0.706 -2.714,0.706 v 0 c -1.437,0 -3.437,-0.452 -5.978,-2.079" /></g></g></g></g><g
       id="g476"><g
         id="g478"><g
           id="g484"><g
             id="g486"><path
               id="path502"
               style="fill:url(#linearGradient500);stroke:none"
               d="m 226.426,674.943 c -5.718,-3.659 -19.9,-10.75 -19.9,-10.75 v 0 c 0,0 -10.752,-9.608 -13.497,-14.869 v 0 c -2.745,-5.262 -7.319,-14.64 -7.319,-14.64 v 0 l 44.834,24.933 c 0,0 2.245,1.779 9.693,-3.396 v 0 l 42.919,-24.968 c 0,0 0.452,15.765 0.058,16.412 v 0 c -0.358,0.586 -1.711,1.589 -1.711,1.589 v 0 l -46.384,27.062 c 0,0 -0.918,0.706 -2.715,0.706 v 0 c -1.437,0 -3.436,-0.452 -5.978,-2.079" /></g></g></g></g><g
       id="g504"><g
         id="g506"><g
           id="g512"><g
             id="g514"><path
               id="path522"
               style="fill:url(#linearGradient520);stroke:none"
               d="m 226.426,674.943 c -5.718,-3.659 -19.9,-10.75 -19.9,-10.75 v 0 c 0,0 -10.752,-9.608 -13.497,-14.869 v 0 c -2.745,-5.262 -7.319,-14.64 -7.319,-14.64 v 0 l 44.834,24.933 c 0,0 2.245,1.779 9.693,-3.396 v 0 l 42.919,-24.968 c 0,0 0.452,15.765 0.058,16.412 v 0 c -0.358,0.586 -1.711,1.589 -1.711,1.589 v 0 l -46.384,27.062 c 0,0 -0.918,0.706 -2.715,0.706 v 0 c -1.437,0 -3.436,-0.452 -5.978,-2.079" /></g></g></g></g><g
       id="g524"><g
         id="g526"><g
           id="g532"><g
             id="g534"><path
               id="path550"
               style="fill:url(#linearGradient548);stroke:none"
               d="m 226.426,674.864 c -5.718,-3.659 -19.9,-10.751 -19.9,-10.751 v 0 c 0,0 -10.752,-9.608 -13.497,-14.868 v 0 c -2.745,-5.262 -7.319,-14.641 -7.319,-14.641 v 0 l 43.842,24.589 c 0,0 2.95,2.461 10.685,-3.052 v 0 l 42.919,-24.967 c 0,0 0.452,15.765 0.058,16.412 v 0 c -0.358,0.586 -1.711,1.588 -1.711,1.588 v 0 l -46.384,27.063 c 0,0 -0.918,0.706 -2.715,0.706 v 0 c -1.437,0 -3.436,-0.452 -5.978,-2.079" /></g></g></g></g><g
       id="g552"><g
         id="g554"><g
           id="g560"><g
             id="g562"><path
               id="path570"
               style="fill:url(#linearGradient568);stroke:none"
               d="m 226.426,674.864 c -5.718,-3.659 -19.9,-10.751 -19.9,-10.751 v 0 c 0,0 -10.752,-9.608 -13.497,-14.868 v 0 c -2.745,-5.262 -7.319,-14.641 -7.319,-14.641 v 0 l 43.842,24.589 c 0,0 2.95,2.461 10.685,-3.052 v 0 l 42.919,-24.967 c 0,0 0.452,15.765 0.058,16.412 v 0 c -0.358,0.586 -1.711,1.588 -1.711,1.588 v 0 l -46.384,27.063 c 0,0 -0.918,0.706 -2.715,0.706 v 0 c -1.437,0 -3.436,-0.452 -5.978,-2.079" /></g></g></g></g><g
       id="g572"><g
         id="g574"><g
           id="g580"><g
             id="g582"><path
               id="path598"
               style="fill:url(#linearGradient596);stroke:none"
               d="m 226.851,675.1 c -5.718,-3.66 -19.9,-10.751 -19.9,-10.751 v 0 c 0,0 -10.752,-9.607 -13.497,-14.869 v 0 c -2.745,-5.261 -7.32,-14.64 -7.32,-14.64 v 0 l 43.843,24.589 c 0,0 2.95,2.461 10.685,-3.051 v 0 l 42.919,-24.969 c 0,0 0.452,15.766 0.057,16.413 v 0 c -0.358,0.587 -1.711,1.588 -1.711,1.588 v 0 l -46.383,27.062 c 0,0 -0.918,0.706 -2.715,0.707 v 0 c -1.437,0 -3.436,-0.452 -5.978,-2.079" /></g></g></g></g><g
       id="g600"><g
         id="g602"><g
           id="g608"><g
             id="g610"><path
               id="path618"
               style="fill:url(#linearGradient616);stroke:none"
               d="m 226.851,675.1 c -5.718,-3.66 -19.9,-10.751 -19.9,-10.751 v 0 c 0,0 -10.752,-9.607 -13.497,-14.869 v 0 c -2.745,-5.261 -7.32,-14.64 -7.32,-14.64 v 0 l 43.843,24.589 c 0,0 2.95,2.461 10.685,-3.051 v 0 l 42.919,-24.969 c 0,0 0.452,15.766 0.057,16.413 v 0 c -0.358,0.587 -1.711,1.588 -1.711,1.588 v 0 l -46.383,27.062 c 0,0 -0.918,0.706 -2.715,0.707 v 0 c -1.437,0 -3.436,-0.452 -5.978,-2.079" /></g></g></g></g><g
       id="g620"><g
         id="g622"><g
           id="g628"><g
             id="g630"><path
               id="path646"
               style="fill:url(#linearGradient644);stroke:none"
               d="m 225.755,674.661 c -5.719,-3.66 -19.902,-10.751 -19.902,-10.751 v 0 c 0,0 -10.75,-9.607 -13.495,-14.869 v 0 c -2.745,-5.261 -7.321,-14.64 -7.321,-14.64 v 0 l 43.844,24.589 c 0,0 1.832,1.419 4.826,0.635 v 0 c 1.613,-0.423 3.149,-1.756 6.224,-3.359 v 0 l 42.919,-24.968 c 0,0 0.087,15.437 -0.308,16.085 v 0 c -0.358,0.586 -1.711,1.588 -1.711,1.588 v 0 l -46.384,27.062 c 0,0 -0.918,0.706 -2.714,0.706 v 0 c -1.437,0 -3.436,-0.451 -5.978,-2.078" /></g></g></g></g><g
       id="g648"><g
         id="g650"><g
           id="g656"><g
             id="g658"><path
               id="path666"
               style="fill:url(#linearGradient664);stroke:none"
               d="m 225.755,674.661 c -5.719,-3.66 -19.902,-10.751 -19.902,-10.751 v 0 c 0,0 -10.75,-9.607 -13.495,-14.869 v 0 c -2.745,-5.261 -7.321,-14.64 -7.321,-14.64 v 0 l 43.844,24.589 c 0,0 1.832,1.419 4.826,0.635 v 0 c 1.613,-0.423 3.149,-1.756 6.224,-3.359 v 0 l 42.919,-24.968 c 0,0 0.087,15.437 -0.308,16.085 v 0 c -0.358,0.586 -1.711,1.588 -1.711,1.588 v 0 l -46.384,27.062 c 0,0 -0.918,0.706 -2.714,0.706 v 0 c -1.437,0 -3.436,-0.451 -5.978,-2.078" /></g></g></g></g><g
       id="g668"><g
         id="g670"><g
           id="g676"><g
             id="g678"><path
               id="path694"
               style="fill:url(#linearGradient692);stroke:none"
               d="m 231.245,654.058 -46.108,-26.645 c -4.367,-1.78 -4.074,-6.991 -4.074,-6.991 v 0 -27.021 c 0.6,-13.382 14.497,-30.537 14.497,-30.537 v 0 l 0.6,50.266 c 0.172,4.633 3.346,5.49 3.346,5.49 v 0 l 47.865,27.965 -12.009,6.863 c -0.887,0.775 -1.773,0.996 -2.495,0.996 v 0 c -0.955,0 -1.622,-0.386 -1.622,-0.386" /></g></g></g></g><g
       id="g696"><g
         id="g698"><g
           id="g704"><g
             id="g706"><path
               id="path714"
               style="fill:url(#linearGradient712);stroke:none"
               d="m 231.245,654.058 -46.108,-26.645 c -4.367,-1.78 -4.074,-6.991 -4.074,-6.991 v 0 -27.021 c 0.6,-13.382 14.497,-30.537 14.497,-30.537 v 0 l 0.6,50.266 c 0.172,4.633 3.346,5.49 3.346,5.49 v 0 l 47.865,27.965 -12.009,6.863 c -0.887,0.775 -1.773,0.996 -2.495,0.996 v 0 c -0.955,0 -1.622,-0.386 -1.622,-0.386" /></g></g></g></g><g
       id="g716"><g
         id="g718"><g
           id="g724"><g
             id="g726"><path
               id="path742"
               style="fill:url(#linearGradient740);stroke:none"
               d="m 205.024,616.19 c -4.46,-2.116 -4.01,-6.062 -4.01,-6.062 v 0 l 0.065,-50.038 c -0.515,-6.462 2.23,-7.434 2.23,-7.434 v 0 l 19.558,-11.152 c 11.552,-6.805 17.384,-5.262 17.384,-5.262 v 0 h 22.418 l -42.719,24.019 c -4.861,2.86 -4.06,7.148 -4.06,7.148 v 0 55.071 z" /></g></g></g></g><g
       id="g744"><g
         id="g746"><g
           id="g752"><g
             id="g754"><path
               id="path762"
               style="fill:url(#linearGradient760);stroke:none"
               d="m 205.024,616.19 c -4.46,-2.116 -4.01,-6.062 -4.01,-6.062 v 0 l 0.065,-50.038 c -0.515,-6.462 2.23,-7.434 2.23,-7.434 v 0 l 19.558,-11.152 c 11.552,-6.805 17.384,-5.262 17.384,-5.262 v 0 h 22.418 l -42.719,24.019 c -4.861,2.86 -4.06,7.148 -4.06,7.148 v 0 55.071 z" /></g></g></g></g><g
       id="g764"><g
         id="g766"><g
           id="g772"><g
             id="g774"><path
               id="path790"
               style="fill:url(#linearGradient788);stroke:none"
               d="m 220.693,569.469 c 0,0 -1.715,-4.118 4.976,-6.605 v 0 l 44.11,-25.757 c 0,0 2.33,-1.748 5.16,0.216 v 0 l 27.971,16.209 c 0.95,0.55 1.743,1.331 2.308,2.273 v 0 c 0.714,1.187 1.976,3.31 4.173,7.059 v 0 l 9.779,16.983 -42.311,-24.061 c -4.397,-2.852 -5.684,-2.037 -9.114,-0.214 v 0 l -47.052,27.107 z" /></g></g></g></g><g
       id="g792"><g
         id="g794"><g
           id="g800"><g
             id="g802"><path
               id="path810"
               style="fill:url(#linearGradient808);stroke:none"
               d="m 220.693,569.469 c 0,0 -1.715,-4.118 4.976,-6.605 v 0 l 44.11,-25.757 c 0,0 2.33,-1.748 5.16,0.216 v 0 l 27.971,16.209 c 0.95,0.55 1.743,1.331 2.308,2.273 v 0 c 0.714,1.187 1.976,3.31 4.173,7.059 v 0 l 9.779,16.983 -42.311,-24.061 c -4.397,-2.852 -5.684,-2.037 -9.114,-0.214 v 0 l -47.052,27.107 z" /></g></g></g></g><g
       id="g812"><g
         id="g814"><g
           id="g820"><g
             id="g822"><path
               id="path838"
               style="fill:url(#linearGradient836);stroke:none"
               d="m 308.263,601.383 c 0.021,-2.524 -1.305,-4.867 -3.48,-6.149 v 0 l -47.927,-28.236 12.167,-7.315 c 1.351,-0.841 3.056,-0.868 4.432,-0.068 v 0 l 46.782,27.13 c 1.551,0.889 2.507,2.541 2.507,4.328 v 0 33.18 c 0,1.068 -0.282,2.117 -0.818,3.042 v 0 l -14.079,24.309 z" /></g></g></g></g><g
       id="g840"><g
         id="g842"><g
           id="g848"><g
             id="g850"><path
               id="path858"
               style="fill:url(#linearGradient856);stroke:none"
               d="m 308.263,601.383 c 0.021,-2.524 -1.305,-4.867 -3.48,-6.149 v 0 l -47.927,-28.236 12.167,-7.315 c 1.351,-0.841 3.056,-0.868 4.432,-0.068 v 0 l 46.782,27.13 c 1.551,0.889 2.507,2.541 2.507,4.328 v 0 33.18 c 0,1.068 -0.282,2.117 -0.818,3.042 v 0 l -14.079,24.309 z" /></g></g></g></g><g
       id="g860"><g
         id="g862"><g
           id="g868"><g
             id="g870"><path
               id="path886"
               style="fill:url(#linearGradient884);stroke:none"
               d="m 268.773,677.252 -27.063,-0.073 43.155,-24.05 c 1.916,-1.068 3.099,-3.095 3.086,-5.289 v 0 l -0.349,-56.583 12.528,6.859 c 1.743,0.953 2.822,2.784 2.814,4.77 v 0 l -0.231,53.911 c -0.008,1.905 -1.044,3.657 -2.709,4.581 v 0 L 272.82,676.48 c -1.227,0.715 -2.044,0.774 -3.272,0.774 v 0 c -0.241,0 -0.497,-0.002 -0.775,-0.002" /></g></g></g></g><g
       id="g888"><g
         id="g890"><g
           id="g896"><g
             id="g898"><path
               id="path906"
               style="fill:url(#linearGradient904);stroke:none"
               d="m 268.773,677.252 -27.063,-0.073 43.155,-24.05 c 1.916,-1.068 3.099,-3.095 3.086,-5.289 v 0 l -0.349,-56.583 12.528,6.859 c 1.743,0.953 2.822,2.784 2.814,4.77 v 0 l -0.231,53.911 c -0.008,1.905 -1.044,3.657 -2.709,4.581 v 0 L 272.82,676.48 c -1.227,0.715 -2.044,0.774 -3.272,0.774 v 0 c -0.241,0 -0.497,-0.002 -0.775,-0.002" /></g></g></g></g><g
       id="g908"><g
         id="g910"><g
           id="g916"><g
             id="g918"><path
               id="path934"
               style="fill:url(#linearGradient932);stroke:none"
               d="m 39.601,515.023 -4.364,-0.638 c -5.343,-1.106 -4.585,-3.439 -3.394,-7.513 v 0 L 82.07,429.693 c 3.02,-4.641 8.341,-6.825 13.877,-6.969 v 0 c 5.139,-0.134 9.769,1.734 12.575,6.04 v 0 l 51.04,79.182 c 2.222,3.111 0.763,6.445 -2.304,6.563 v 0 l -10.132,0.39 c -4.346,0.166 -8.459,-1.967 -10.826,-5.615 v 0 l -40.517,-62.449 -39.72,60.771 c -3.125,4.78 -8.428,7.594 -14.031,7.594 v 0 c -0.806,0 -1.618,-0.058 -2.431,-0.177" /></g></g></g></g><g
       id="g936"><g
         id="g938"><g
           id="g944"><g
             id="g946"><path
               id="path954"
               style="fill:url(#linearGradient952);stroke:none"
               d="m 39.601,515.023 -4.364,-0.638 c -5.343,-1.106 -4.585,-3.439 -3.394,-7.513 v 0 L 82.07,429.693 c 3.02,-4.641 8.341,-6.825 13.877,-6.969 v 0 c 5.139,-0.134 9.769,1.734 12.575,6.04 v 0 l 51.04,79.182 c 2.222,3.111 0.763,6.445 -2.304,6.563 v 0 l -10.132,0.39 c -4.346,0.166 -8.459,-1.967 -10.826,-5.615 v 0 l -40.517,-62.449 -39.72,60.771 c -3.125,4.78 -8.428,7.594 -14.031,7.594 v 0 c -0.806,0 -1.618,-0.058 -2.431,-0.177" /></g></g></g></g><g
       id="g956"><g
         id="g958"><g
           id="g964"><g
             id="g966"><path
               id="path982"
               style="fill:url(#linearGradient980);stroke:none"
               d="m 171.302,508.28 -0.069,-80.187 c -0.003,-2.968 1.768,-4.888 5.07,-5.207 v 0 l 10.963,0.035 c 3.036,0.316 4.518,2.082 4.518,5.285 v 0 l 0.222,81.978 c 0,2.771 -2.119,4.17 -4.889,4.17 v 0 l -10.074,0.147 c -3.916,0 -5.741,-2.306 -5.741,-6.221" /></g></g></g></g><g
       id="g984"><g
         id="g986"><g
           id="g992"><g
             id="g994"><path
               id="path1002"
               style="fill:url(#linearGradient1000);stroke:none"
               d="m 171.302,508.28 -0.069,-80.187 c -0.003,-2.968 1.768,-4.888 5.07,-5.207 v 0 l 10.963,0.035 c 3.036,0.316 4.518,2.082 4.518,5.285 v 0 l 0.222,81.978 c 0,2.771 -2.119,4.17 -4.889,4.17 v 0 l -10.074,0.147 c -3.916,0 -5.741,-2.306 -5.741,-6.221" /></g></g></g></g><g
       id="g1004"><g
         id="g1006"><g
           id="g1012"><g
             id="g1014"><path
               id="path1030"
               style="fill:url(#linearGradient1028);stroke:none"
               d="m 305.303,515.073 -90.573,-0.539 c -3.106,-0.018 -5.613,-2.54 -5.613,-5.645 v 0 -8.536 c 0,-2.74 2.222,-4.962 4.963,-4.962 v 0 l 84.963,0.296 c 4.32,0.055 6.88,-2.199 6.815,-6.519 v 0 l 0.305,-40.441 c 0.076,-3.415 -2.672,-6.223 -6.087,-6.219 v 0 l -85.306,0.081 c -3.136,-0.048 -5.653,-2.604 -5.653,-5.741 v 0 -8.747 c 0,-2.88 2.335,-5.215 5.215,-5.215 v 0 h 91.348 c 11.635,0 21.067,9.432 21.067,21.067 v 0 49.804 c 0,11.779 -9.551,21.316 -21.314,21.316 v 0 c -0.044,0 -0.086,0 -0.13,0" /></g></g></g></g><g
       id="g1032"><g
         id="g1034"><g
           id="g1040"><g
             id="g1042"><path
               id="path1050"
               style="fill:url(#linearGradient1048);stroke:none"
               d="m 305.303,515.073 -90.573,-0.539 c -3.106,-0.018 -5.613,-2.54 -5.613,-5.645 v 0 -8.536 c 0,-2.74 2.222,-4.962 4.963,-4.962 v 0 l 84.963,0.296 c 4.32,0.055 6.88,-2.199 6.815,-6.519 v 0 l 0.305,-40.441 c 0.076,-3.415 -2.672,-6.223 -6.087,-6.219 v 0 l -85.306,0.081 c -3.136,-0.048 -5.653,-2.604 -5.653,-5.741 v 0 -8.747 c 0,-2.88 2.335,-5.215 5.215,-5.215 v 0 h 91.348 c 11.635,0 21.067,9.432 21.067,21.067 v 0 49.804 c 0,11.779 -9.551,21.316 -21.314,21.316 v 0 c -0.044,0 -0.086,0 -0.13,0" /></g></g></g></g><g
       id="g1052"><g
         id="g1054"><g
           id="g1060"><g
             id="g1062"><path
               id="path1078"
               style="fill:url(#linearGradient1076);stroke:none"
               d="m 389.601,508.802 -49.786,-76.734 c -0.566,-0.874 -1.033,-1.81 -1.348,-2.803 v 0 c -0.214,-0.672 -0.322,-1.247 -0.515,-2.247 v 0 c -0.307,-1.535 2.165,-3.063 5.026,-3.507 v 0 l 7.74,-0.708 c 0.919,-0.085 1.849,-0.107 2.761,0.034 v 0 c 3.355,0.519 6.444,2.543 8.307,5.407 v 0 l 40.96,62.998 39.967,-61.881 c 0.872,-1.204 2.734,-3.432 5.893,-5.019 v 0 c 2.682,-1.347 5.138,-1.646 6.566,-1.711 v 0 c 0.464,-0.006 0.927,-0.014 1.391,-0.02 v 0 c 0.567,0.041 1.166,0.101 1.794,0.188 v 0 c 0.853,0.119 1.644,0.272 2.368,0.441 v 0 l 1.726,0.447 c 6.018,1.833 5.148,2.963 3.724,6.783 v 0 l -49.567,77.22 c -3.212,5.004 -9.178,7.193 -14.727,7.193 v 0 c -5.619,0 -10.809,-2.244 -12.28,-6.081" /></g></g></g></g><g
       id="g1080"><g
         id="g1082"><g
           id="g1088"><g
             id="g1090"><path
               id="path1098"
               style="fill:url(#linearGradient1096);stroke:none"
               d="m 389.601,508.802 -49.786,-76.734 c -0.566,-0.874 -1.033,-1.81 -1.348,-2.803 v 0 c -0.214,-0.672 -0.322,-1.247 -0.515,-2.247 v 0 c -0.307,-1.535 2.165,-3.063 5.026,-3.507 v 0 l 7.74,-0.708 c 0.919,-0.085 1.849,-0.107 2.761,0.034 v 0 c 3.355,0.519 6.444,2.543 8.307,5.407 v 0 l 40.96,62.998 39.967,-61.881 c 0.872,-1.204 2.734,-3.432 5.893,-5.019 v 0 c 2.682,-1.347 5.138,-1.646 6.566,-1.711 v 0 c 0.464,-0.006 0.927,-0.014 1.391,-0.02 v 0 c 0.567,0.041 1.166,0.101 1.794,0.188 v 0 c 0.853,0.119 1.644,0.272 2.368,0.441 v 0 l 1.726,0.447 c 6.018,1.833 5.148,2.963 3.724,6.783 v 0 l -49.567,77.22 c -3.212,5.004 -9.178,7.193 -14.727,7.193 v 0 c -5.619,0 -10.809,-2.244 -12.28,-6.081" /></g></g></g></g><g
       id="g1100"><g
         clip-path="url(#clipPath1106)"
         id="g1102"><path
           id="path1108"
           style="fill:#003dd4;fill-opacity:1;fill-rule:nonzero;stroke:none"
           d="M 454.831,219.529 H 297.36 V 377 h 157.471 z" /></g></g><g
       id="g1110"><g
         id="g1112"><g
           id="g1118"><g
             id="g1120"><path
               id="path1130"
               style="fill:url(#linearGradient1128);stroke:none"
               d="M 472.469,46.454 H 629.94 v 157.47 H 472.469 Z" /></g></g></g></g><g
       id="g1132"><g
         clip-path="url(#clipPath1138)"
         id="g1134"><path
           id="path1140"
           style="fill:#0033ba;fill-opacity:1;fill-rule:nonzero;stroke:none"
           d="M 629.941,219.529 H 472.47 V 377 h 157.471 z" /><path
           id="path1142"
           style="fill:#01013c;fill-opacity:1;fill-rule:nonzero;stroke:none"
           d="M 805.051,219.529 H 647.58 V 377 h 157.471 z" /></g></g><g
       id="g1144"><g
         id="g1146"><g
           id="g1152"><g
             id="g1154"><path
               id="path1166"
               style="fill:url(#linearGradient1164);stroke:none"
               d="m 297.36,46.454 h 157.47 v 157.47 H 297.36 Z" /></g></g></g></g><g
       id="g1168"><g
         clip-path="url(#clipPath1174)"
         id="g1170"><path
           id="path1176"
           style="fill:#333333;fill-opacity:1;fill-rule:nonzero;stroke:none"
           d="M 274.755,219.529 H 117.284 V 377 h 157.471 z" /></g></g></g></svg>
