<svg width="47" height="47" viewBox="0 0 47 47" fill="none" xmlns="http://www.w3.org/2000/svg">
<path d="M25.4583 17.6251C25.4583 18.7066 24.5815 19.5834 23.5 19.5834C22.4184 19.5834 21.5417 18.7066 21.5417 17.6251C21.5417 16.5435 22.4184 15.6667 23.5 15.6667C24.5815 15.6667 25.4583 16.5435 25.4583 17.6251Z" fill="#F30000"/>
<path d="M23.5 23.0105C24.3112 23.0105 24.9687 23.6681 24.9687 24.4792V34.2709C24.9687 35.0821 24.3112 35.7397 23.5 35.7397C22.6888 35.7397 22.0312 35.0821 22.0312 34.2709V24.4792C22.0312 23.6681 22.6888 23.0105 23.5 23.0105Z" fill="#F30000"/>
<path fill-rule="evenodd" clip-rule="evenodd" d="M27.9461 7.81899C25.8076 4.69023 21.1923 4.69021 19.0538 7.81898L18.208 9.05654C12.9086 16.81 8.35558 25.048 4.60982 33.6601L4.43315 34.0663C3.11312 37.1012 5.10742 40.5473 8.39653 40.9149C18.4342 42.0368 28.5657 42.0368 38.6034 40.9149C41.8925 40.5473 43.8868 37.1012 42.5667 34.0663L42.3901 33.6601C38.6443 25.048 34.0913 16.81 28.7919 9.05655L27.9461 7.81899ZM21.479 9.47653C22.451 8.05437 24.5489 8.05437 25.5209 9.47654L26.3668 10.7141C31.5614 18.3144 36.0245 26.3897 39.6963 34.8317L39.873 35.2379C40.4045 36.46 39.6015 37.8476 38.2771 37.9956C28.4562 39.0932 18.5437 39.0932 8.72281 37.9956C7.39839 37.8476 6.59536 36.46 7.12689 35.2379L7.30356 34.8317C10.9753 26.3897 15.4385 18.3144 20.6331 10.7141L21.479 9.47653Z" fill="#F30000"/>
</svg>
