<svg width="41" height="41" viewBox="0 0 41 41" fill="none" xmlns="http://www.w3.org/2000/svg">
<path d="M15.3751 17.0834L21.4665 21.652C21.885 21.9658 22.4746 21.9042 22.8191 21.5105L34.1667 8.54175" stroke="#00E031" stroke-width="3" stroke-linecap="round"/>
<path d="M35.875 20.5C35.875 23.7125 34.8687 26.8443 32.9975 29.4556C31.1263 32.0669 28.4842 34.0264 25.4421 35.0591C22.4001 36.0917 19.111 36.1455 16.0369 35.213C12.9627 34.2804 10.2578 32.4084 8.30219 29.8597C6.34654 27.3111 5.23834 24.2138 5.13323 21.0031C5.02812 17.7923 5.93138 14.6292 7.71615 11.9581C9.50093 9.28701 12.0776 7.24205 15.0842 6.11045C18.0908 4.97884 21.3763 4.81743 24.4793 5.64889" stroke="#00E031" stroke-width="3" stroke-linecap="round"/>
</svg>
