<svg width="31" height="38" viewBox="0 0 31 38" fill="none" xmlns="http://www.w3.org/2000/svg">
<path fill-rule="evenodd" clip-rule="evenodd" d="M0.260254 6.0617C0.260254 3.17991 2.64325 0.84375 5.58283 0.84375H21.0412C22.1323 0.84375 23.1566 1.35904 23.7929 2.22802L29.6248 10.1933C30.038 10.7576 30.2603 11.4348 30.2603 12.1295V32.6258C30.2603 35.5076 27.8773 37.8438 24.9377 37.8438H5.58283C2.64325 37.8438 0.260254 35.5076 0.260254 32.6258V6.0617ZM5.58283 3.6899C4.24666 3.6899 3.16348 4.75179 3.16348 6.0617V32.6258C3.16348 33.9357 4.24666 34.9976 5.58283 34.9976H24.9377C26.2738 34.9976 27.357 33.9357 27.357 32.6258V13.4561H21.0667C20.265 13.4561 19.6151 12.819 19.6151 12.033V3.6899H5.58283Z" fill="#0075BE"/>
</svg>
